<?xml version="1.0" encoding="UTF-8" standalone="yes"?><svg xmlns="http://www.w3.org/2000/svg" xmlns:xlink="http://www.w3.org/1999/xlink" height="396.0742pt" style="width:693px;height:396px;" version="1.1" viewBox="0 0 693 396" width="693.1298pt"><defs/><g><rect fill="#337788" height="38.4112" style="stroke: #FFFFFF; stroke-width: 0.6543075245365322;" width="199.7819" x="304.253" y="54.9618"/><ellipse cx="383.0971" cy="62.2504" fill="#B4A7E5" rx="4.7983" ry="4.7983" style="stroke: #FFFFFF; stroke-width: 0.4362050163576881;"/><path d="M383.5128,60.785 L383.5128,63.6885 L384.2625,63.6885 Q384.5284,63.6885 384.6442,63.7907 Q384.7601,63.893 384.7601,64.0634 Q384.7601,64.2269 384.6442,64.3292 Q384.5284,64.4314 384.2625,64.4314 L382.0202,64.4314 Q381.7544,64.4314 381.6385,64.3292 Q381.5226,64.2269 381.5226,64.0565 Q381.5226,63.893 381.6385,63.7907 Q381.7544,63.6885 382.0202,63.6885 L382.7699,63.6885 L382.7699,60.785 L382.0202,60.785 Q381.7544,60.785 381.6385,60.6828 Q381.5226,60.5805 381.5226,60.4101 Q381.5226,60.2466 381.6385,60.1443 Q381.7544,60.0421 382.0202,60.0421 L384.2625,60.0421 Q384.5284,60.0421 384.6442,60.1443 Q384.7601,60.2466 384.7601,60.4101 Q384.7601,60.5805 384.6442,60.6828 Q384.5284,60.785 384.2625,60.785 L383.5128,60.785 Z "/><text fill="#FFFFFF" font-family="Consolas" font-size="8.7241" font-style="italic" lengthAdjust="spacingAndGlyphs" textLength="38.386" x="392.0393" y="65.8584">Executor</text><line style="stroke: #FFFFFF; stroke-width: 0.6543075245365322;" x1="304.6892" x2="503.5987" y1="69.5389" y2="69.5389"/><line style="stroke: #FFFFFF; stroke-width: 0.6543075245365322;" x1="304.6892" x2="503.5987" y1="73.0286" y2="73.0286"/><ellipse cx="309.0513" cy="78.2368" fill="#84BE84" rx="1.3086" ry="1.3086" style="stroke: #038048; stroke-width: 0.4362050163576881;"/><text fill="#FFFFFF" font-family="Consolas" font-size="4.7983" lengthAdjust="spacingAndGlyphs" textLength="188.4406" x="312.9771" y="79.5669">DataDictionaryFormulaResult executeFormula(String, SDDParameterProvider)</text><ellipse cx="309.0513" cy="83.8551" fill="#84BE84" rx="1.3086" ry="1.3086" style="stroke: #038048; stroke-width: 0.4362050163576881;"/><text fill="#FFFFFF" font-family="Consolas" font-size="4.7983" lengthAdjust="spacingAndGlyphs" textLength="136.096" x="312.9771" y="85.1852">byte[] executeTemplate(String, SDDParameterProvider)</text><ellipse cx="309.0513" cy="89.4734" fill="#84BE84" rx="1.3086" ry="1.3086" style="stroke: #038048; stroke-width: 0.4362050163576881;"/><text fill="#FFFFFF" font-family="Consolas" font-size="4.7983" lengthAdjust="spacingAndGlyphs" textLength="31.4068" x="312.9771" y="90.8035">void close()</text><polygon fill="#FBFB77" points="367.5027,3.4896,367.5027,14.4915,440.7852,14.4915,440.7852,7.8517,436.4231,3.4896,367.5027,3.4896" style="stroke: #A80036; stroke-width: 0.4362050163576881;"/><polygon fill="#FBFB77" points="367.5027,3.4896,367.5027,14.4915,402.3991,14.4915,404.1439,54.933,405.8888,14.4915,440.7852,14.4915,440.7852,7.8517,436.4231,3.4896,367.5027,3.4896" style="stroke: #A80036; stroke-width: 0.4362050163576881;"/><line style="stroke: #A80036; stroke-width: 0.4362050163576881;" x1="436.4231" x2="436.4231" y1="3.4896" y2="7.8517"/><line style="stroke: #A80036; stroke-width: 0.4362050163576881;" x1="440.7852" x2="436.4231" y1="7.8517" y2="7.8517"/><text fill="#000000" font-family="Consolas" font-size="5.6707" lengthAdjust="spacingAndGlyphs" textLength="64.1221" x="370.12" y="11.3358">Transformation Engine</text><rect fill="#337788" height="55.266" style="stroke: #FFFFFF; stroke-width: 0.6543075245365322;" width="199.7819" x="304.253" y="171.6467"/><ellipse cx="363.904" cy="178.9352" fill="#A9DCDF" rx="4.7983" ry="4.7983" style="stroke: #FFFFFF; stroke-width: 0.4362050163576881;"/><path d="M364.8582,179.7054 L363.0521,179.7054 L362.868,180.1552 L363.0521,180.1552 Q363.3179,180.1552 363.4338,180.2575 Q363.5496,180.3597 363.5496,180.5301 Q363.5496,180.6937 363.4338,180.7959 Q363.3179,180.8981 363.0521,180.8981 L362.0502,180.8981 Q361.7844,180.8981 361.6719,180.7959 Q361.5594,180.6937 361.5594,180.5233 Q361.5594,180.3597 361.6787,180.2541 Q361.798,180.1484 362.0706,180.1552 L363.2361,177.2517 L362.7522,177.2517 Q362.4864,177.2517 362.3705,177.1495 Q362.2546,177.0473 362.2546,176.8769 Q362.2546,176.7133 362.3705,176.6111 Q362.4864,176.5088 362.7522,176.5088 L364.3539,176.5088 L365.8329,180.1552 Q366.0919,180.1552 366.1737,180.2166 Q366.3441,180.3324 366.3441,180.5301 Q366.3441,180.6937 366.2316,180.7959 Q366.1191,180.8981 365.8533,180.8981 L364.8514,180.8981 Q364.5856,180.8981 364.4697,180.7959 Q364.3539,180.6937 364.3539,180.5233 Q364.3539,180.3597 364.4697,180.2575 Q364.5856,180.1552 364.8514,180.1552 L365.0354,180.1552 L364.8582,179.7054 Z M364.5447,178.9625 L363.9517,177.4903 L363.352,178.9625 L364.5447,178.9625 Z "/><text fill="#FFFFFF" font-family="Consolas" font-size="8.7241" font-style="italic" lengthAdjust="spacingAndGlyphs" textLength="76.7721" x="372.8462" y="182.5433">AbstractExecutor</text><line style="stroke: #FFFFFF; stroke-width: 0.6543075245365322;" x1="304.6892" x2="503.5987" y1="186.2238" y2="186.2238"/><line style="stroke: #FFFFFF; stroke-width: 0.6543075245365322;" x1="304.6892" x2="503.5987" y1="189.7134" y2="189.7134"/><ellipse cx="309.0513" cy="194.9217" fill="#84BE84" rx="1.3086" ry="1.3086" style="stroke: #038048; stroke-width: 0.4362050163576881;"/><text fill="#FFFFFF" font-family="Consolas" font-size="4.7983" lengthAdjust="spacingAndGlyphs" textLength="188.4406" x="312.9771" y="196.2518">DataDictionaryFormulaResult executeFormula(String, SDDParameterProvider)</text><ellipse cx="309.0513" cy="200.5399" fill="#84BE84" rx="1.3086" ry="1.3086" style="stroke: #038048; stroke-width: 0.4362050163576881;"/><text fill="#FFFFFF" font-family="Consolas" font-size="4.7983" lengthAdjust="spacingAndGlyphs" textLength="136.096" x="312.9771" y="201.8701">byte[] executeTemplate(String, SDDParameterProvider)</text><ellipse cx="309.0513" cy="206.1582" fill="#84BE84" rx="1.3086" ry="1.3086" style="stroke: #038048; stroke-width: 0.4362050163576881;"/><text fill="#FFFFFF" font-family="Consolas" font-size="4.7983" lengthAdjust="spacingAndGlyphs" textLength="102.072" x="312.9771" y="207.4883">CacheConfig createCacheFromFile(String)</text><ellipse cx="309.0513" cy="211.7765" fill="#84BE84" rx="1.3086" ry="1.3086" style="stroke: #038048; stroke-width: 0.4362050163576881;"/><text fill="#FFFFFF" font-family="Consolas" font-size="4.7983" lengthAdjust="spacingAndGlyphs" textLength="83.7514" x="312.9771" y="213.1066">ManageableCache getCache(String)</text><ellipse cx="309.0513" cy="217.3947" fill="#84BE84" rx="1.3086" ry="1.3086" style="stroke: #038048; stroke-width: 0.4362050163576881;"/><text fill="#FFFFFF" font-family="Consolas" font-size="4.7983" lengthAdjust="spacingAndGlyphs" textLength="115.1581" x="312.9771" y="218.7249">void removeFromDictionaryCaches(Set&lt;String&gt;)</text><ellipse cx="309.0513" cy="223.013" fill="#84BE84" rx="1.3086" ry="1.3086" style="stroke: #038048; stroke-width: 0.4362050163576881;"/><text fill="#FFFFFF" font-family="Consolas" font-size="4.7983" lengthAdjust="spacingAndGlyphs" textLength="31.4068" x="312.9771" y="224.3431">void close()</text><rect fill="#337788" height="44.0294" style="stroke: #FFFFFF; stroke-width: 0.6543075245365322;" width="244.2748" x="295.5289" y="317.9935"/><ellipse cx="379.8255" cy="325.282" fill="#ADD1B2" rx="4.7983" ry="4.7983" style="stroke: #FFFFFF; stroke-width: 0.4362050163576881;"/><path d="M381.0319,323.4827 Q381.1001,323.3872 381.1818,323.3395 Q381.2636,323.2918 381.3591,323.2918 Q381.5226,323.2918 381.6249,323.4043 Q381.7271,323.5167 381.7271,323.7825 L381.7271,324.4164 Q381.7271,324.6822 381.6249,324.7981 Q381.5226,324.914 381.3591,324.914 Q381.2091,324.914 381.1205,324.8253 Q381.0319,324.7436 380.9842,324.5186 Q380.9637,324.3619 380.882,324.2801 Q380.7388,324.1165 380.473,324.0211 Q380.2072,323.9257 379.9346,323.9257 Q379.6006,323.9257 379.3246,324.0688 Q379.0485,324.2119 378.8338,324.5391 Q378.6191,324.8662 378.6191,325.3161 L378.6191,325.7932 Q378.6191,326.3316 379.0076,326.6894 Q379.3961,327.0473 380.0913,327.0473 Q380.5003,327.0473 380.7865,326.9382 Q380.9569,326.8701 381.1409,326.6792 Q381.2568,326.5634 381.3216,326.5293 Q381.3863,326.4952 381.4749,326.4952 Q381.618,326.4952 381.7305,326.6077 Q381.843,326.7201 381.843,326.8701 Q381.843,327.02 381.693,327.1972 Q381.4749,327.4494 381.1273,327.5925 Q380.657,327.7902 380.0913,327.7902 Q379.4302,327.7902 378.9054,327.5176 Q378.476,327.2994 378.1761,326.8326 Q377.8762,326.3657 377.8762,325.8068 L377.8762,325.3024 Q377.8762,324.7231 378.1454,324.2222 Q378.4147,323.7212 378.8918,323.452 Q379.3689,323.1828 379.9073,323.1828 Q380.2276,323.1828 380.5105,323.2543 Q380.7933,323.3259 381.0319,323.4827 Z "/><text fill="#FFFFFF" font-family="Consolas" font-size="8.7241" lengthAdjust="spacingAndGlyphs" textLength="71.9738" x="388.7677" y="328.8901">OfflineExecutor</text><line style="stroke: #FFFFFF; stroke-width: 0.6543075245365322;" x1="295.9651" x2="539.3675" y1="332.5705" y2="332.5705"/><ellipse cx="300.3272" cy="337.7788" fill="#84BE84" rx="1.3086" ry="1.3086" style="stroke: #038048; stroke-width: 0.4362050163576881;"/><text fill="#FFFFFF" font-family="Consolas" font-size="4.7983" lengthAdjust="spacingAndGlyphs" textLength="198.9095" x="304.253" y="339.1089">OfflineExecutor(ResourceLoader, BoRepositoryService, String, String, String)</text><ellipse cx="300.3272" cy="343.3971" fill="#84BE84" rx="1.3086" ry="1.3086" style="stroke: #038048; stroke-width: 0.4362050163576881;"/><text fill="#FFFFFF" font-family="Consolas" font-size="4.7983" lengthAdjust="spacingAndGlyphs" textLength="232.9335" x="304.253" y="344.7272">OfflineExecutor(ResourceLoader, BoRepositoryService, String, String, String, ClassLoader)</text><line style="stroke: #FFFFFF; stroke-width: 0.6543075245365322;" x1="295.9651" x2="539.3675" y1="347.2967" y2="347.2967"/><ellipse cx="300.3272" cy="352.505" fill="#84BE84" rx="1.3086" ry="1.3086" style="stroke: #038048; stroke-width: 0.4362050163576881;"/><text fill="#FFFFFF" font-family="Consolas" font-size="4.7983" lengthAdjust="spacingAndGlyphs" textLength="102.072" x="304.253" y="353.8351">void setContextClassLoader(ClassLoader)</text><ellipse cx="300.3272" cy="358.1233" fill="#84BE84" rx="1.3086" ry="1.3086" style="stroke: #038048; stroke-width: 0.4362050163576881;"/><text fill="#FFFFFF" font-family="Consolas" font-size="4.7983" lengthAdjust="spacingAndGlyphs" textLength="73.2824" x="304.253" y="359.4534">setOverridenResource(Object)</text><rect fill="#337788" height="111.4487" style="stroke: #FFFFFF; stroke-width: 0.6543075245365322;" width="116.0305" x="148.964" y="284.4057"/><ellipse cx="171.5376" cy="291.6942" fill="#B4A7E5" rx="4.7983" ry="4.7983" style="stroke: #FFFFFF; stroke-width: 0.4362050163576881;"/><path d="M171.9534,290.2288 L171.9534,293.1323 L172.7031,293.1323 Q172.9689,293.1323 173.0848,293.2346 Q173.2007,293.3368 173.2007,293.5072 Q173.2007,293.6708 173.0848,293.773 Q172.9689,293.8752 172.7031,293.8752 L170.4607,293.8752 Q170.1949,293.8752 170.0791,293.773 Q169.9632,293.6708 169.9632,293.5004 Q169.9632,293.3368 170.0791,293.2346 Q170.1949,293.1323 170.4607,293.1323 L171.2105,293.1323 L171.2105,290.2288 L170.4607,290.2288 Q170.1949,290.2288 170.0791,290.1266 Q169.9632,290.0244 169.9632,289.854 Q169.9632,289.6904 170.0791,289.5882 Q170.1949,289.4859 170.4607,289.4859 L172.7031,289.4859 Q172.9689,289.4859 173.0848,289.5882 Q173.2007,289.6904 173.2007,289.854 Q173.2007,290.0244 173.0848,290.1266 Q172.9689,290.2288 172.7031,290.2288 L171.9534,290.2288 Z "/><text fill="#FFFFFF" font-family="Consolas" font-size="8.7241" font-style="italic" lengthAdjust="spacingAndGlyphs" textLength="67.1756" x="180.4798" y="295.3023">ResourceLoader</text><line style="stroke: #FFFFFF; stroke-width: 0.6543075245365322;" x1="149.4002" x2="264.5583" y1="298.9828" y2="298.9828"/><line style="stroke: #FFFFFF; stroke-width: 0.6543075245365322;" x1="149.4002" x2="264.5583" y1="302.4724" y2="302.4724"/><ellipse cx="153.7623" cy="307.6807" fill="#84BE84" rx="1.3086" ry="1.3086" style="stroke: #038048; stroke-width: 0.4362050163576881;"/><text fill="#FFFFFF" font-family="Consolas" font-size="4.7983" lengthAdjust="spacingAndGlyphs" textLength="52.3446" x="157.6881" y="309.0108">Version getVersion()</text><ellipse cx="153.7623" cy="313.2989" fill="#84BE84" rx="1.3086" ry="1.3086" style="stroke: #038048; stroke-width: 0.4362050163576881;"/><text fill="#FFFFFF" font-family="Consolas" font-size="4.7983" lengthAdjust="spacingAndGlyphs" textLength="81.1341" x="157.6881" y="314.6291">List&lt;DDOFormula&gt; readFormulae()</text><ellipse cx="153.7623" cy="318.9172" fill="#84BE84" rx="1.3086" ry="1.3086" style="stroke: #038048; stroke-width: 0.4362050163576881;"/><text fill="#FFFFFF" font-family="Consolas" font-size="4.7983" lengthAdjust="spacingAndGlyphs" textLength="86.3686" x="157.6881" y="320.2473">List&lt;DDOSkeleton&gt; readSkeletons()</text><ellipse cx="153.7623" cy="324.5355" fill="#84BE84" rx="1.3086" ry="1.3086" style="stroke: #038048; stroke-width: 0.4362050163576881;"/><text fill="#FFFFFF" font-family="Consolas" font-size="4.7983" lengthAdjust="spacingAndGlyphs" textLength="81.1341" x="157.6881" y="325.8656">List&lt;DDOContext&gt; readContexts()</text><ellipse cx="153.7623" cy="330.1537" fill="#84BE84" rx="1.3086" ry="1.3086" style="stroke: #038048; stroke-width: 0.4362050163576881;"/><text fill="#FFFFFF" font-family="Consolas" font-size="4.7983" lengthAdjust="spacingAndGlyphs" textLength="86.3686" x="157.6881" y="331.4839">List&lt;DDOTemplate&gt; readTemplates()</text><ellipse cx="153.7623" cy="335.772" fill="#84BE84" rx="1.3086" ry="1.3086" style="stroke: #038048; stroke-width: 0.4362050163576881;"/><text fill="#FFFFFF" font-family="Consolas" font-size="4.7983" lengthAdjust="spacingAndGlyphs" textLength="78.5169" x="157.6881" y="337.1021">DDOFormula readFormula(String)</text><ellipse cx="153.7623" cy="341.3903" fill="#84BE84" rx="1.3086" ry="1.3086" style="stroke: #038048; stroke-width: 0.4362050163576881;"/><text fill="#FFFFFF" font-family="Consolas" font-size="4.7983" lengthAdjust="spacingAndGlyphs" textLength="83.7514" x="157.6881" y="342.7204">DDOSkeleton readSkeleton(String)</text><ellipse cx="153.7623" cy="347.0085" fill="#84BE84" rx="1.3086" ry="1.3086" style="stroke: #038048; stroke-width: 0.4362050163576881;"/><text fill="#FFFFFF" font-family="Consolas" font-size="4.7983" lengthAdjust="spacingAndGlyphs" textLength="78.5169" x="157.6881" y="348.3387">DDOContext readContext(String)</text><ellipse cx="153.7623" cy="352.6268" fill="#84BE84" rx="1.3086" ry="1.3086" style="stroke: #038048; stroke-width: 0.4362050163576881;"/><text fill="#FFFFFF" font-family="Consolas" font-size="4.7983" lengthAdjust="spacingAndGlyphs" textLength="83.7514" x="157.6881" y="353.9569">DDOTemplate readTemplate(String)</text><ellipse cx="153.7623" cy="358.2451" fill="#84BE84" rx="1.3086" ry="1.3086" style="stroke: #038048; stroke-width: 0.4362050163576881;"/><text fill="#FFFFFF" font-family="Consolas" font-size="4.7983" lengthAdjust="spacingAndGlyphs" textLength="104.6892" x="157.6881" y="359.5752">DDOTemplate readTemplate(String, String)</text><ellipse cx="153.7623" cy="363.8634" fill="#84BE84" rx="1.3086" ry="1.3086" style="stroke: #038048; stroke-width: 0.4362050163576881;"/><text fill="#FFFFFF" font-family="Consolas" font-size="4.7983" lengthAdjust="spacingAndGlyphs" textLength="81.1341" x="157.6881" y="365.1935">boolean isFormulaExists(String)</text><ellipse cx="153.7623" cy="369.4816" fill="#84BE84" rx="1.3086" ry="1.3086" style="stroke: #038048; stroke-width: 0.4362050163576881;"/><text fill="#FFFFFF" font-family="Consolas" font-size="4.7983" lengthAdjust="spacingAndGlyphs" textLength="34.024" x="157.6881" y="370.8118">int getType()</text><ellipse cx="153.7623" cy="375.0999" fill="#84BE84" rx="1.3086" ry="1.3086" style="stroke: #038048; stroke-width: 0.4362050163576881;"/><text fill="#FFFFFF" font-family="Consolas" font-size="4.7983" lengthAdjust="spacingAndGlyphs" textLength="52.3446" x="157.6881" y="376.43">String getLocation()</text><ellipse cx="153.7623" cy="380.7182" fill="#84BE84" rx="1.3086" ry="1.3086" style="stroke: #038048; stroke-width: 0.4362050163576881;"/><text fill="#FFFFFF" font-family="Consolas" font-size="4.7983" lengthAdjust="spacingAndGlyphs" textLength="36.6412" x="157.6881" y="382.0483">void cleanUp()</text><ellipse cx="153.7623" cy="386.3364" fill="#84BE84" rx="1.3086" ry="1.3086" style="stroke: #038048; stroke-width: 0.4362050163576881;"/><text fill="#FFFFFF" font-family="Consolas" font-size="4.7983" lengthAdjust="spacingAndGlyphs" textLength="60.1963" x="157.6881" y="387.6666">byte[] getClazz(String)</text><ellipse cx="153.7623" cy="391.9547" fill="#84BE84" rx="1.3086" ry="1.3086" style="stroke: #038048; stroke-width: 0.4362050163576881;"/><text fill="#FFFFFF" font-family="Consolas" font-size="4.7983" lengthAdjust="spacingAndGlyphs" textLength="70.6652" x="157.6881" y="393.2848">byte[] getJavaClass(String)</text><polygon fill="#FBFB77" points="151.7993,193.8931,151.7993,204.895,270.8833,204.895,270.8833,198.2552,266.5213,193.8931,151.7993,193.8931" style="stroke: #A80036; stroke-width: 0.4362050163576881;"/><polygon fill="#FBFB77" points="151.7993,193.8931,151.7993,204.895,209.436,204.895,208.7014,284.386,212.9256,204.895,270.8833,204.895,270.8833,198.2552,266.5213,193.8931,151.7993,193.8931" style="stroke: #A80036; stroke-width: 0.4362050163576881;"/><line style="stroke: #A80036; stroke-width: 0.4362050163576881;" x1="266.5213" x2="266.5213" y1="193.8931" y2="198.2552"/><line style="stroke: #A80036; stroke-width: 0.4362050163576881;" x1="270.8833" x2="266.5213" y1="198.2552" y2="198.2552"/><text fill="#000000" font-family="Consolas" font-size="5.6707" lengthAdjust="spacingAndGlyphs" textLength="109.9237" x="154.4166" y="201.7393">Transformation Configuration / Logic</text><rect fill="#337788" height="66.5025" style="stroke: #FFFFFF; stroke-width: 0.6543075245365322;" width="109.9237" x="94.8746" y="41.0033"/><ellipse cx="101.4177" cy="48.2918" fill="#ADD1B2" rx="4.7983" ry="4.7983" style="stroke: #FFFFFF; stroke-width: 0.4362050163576881;"/><path d="M102.624,46.4925 Q102.6922,46.397 102.774,46.3493 Q102.8558,46.3016 102.9512,46.3016 Q103.1148,46.3016 103.217,46.4141 Q103.3192,46.5265 103.3192,46.7924 L103.3192,47.4262 Q103.3192,47.692 103.217,47.8079 Q103.1148,47.9238 102.9512,47.9238 Q102.8013,47.9238 102.7126,47.8352 Q102.624,47.7534 102.5763,47.5285 Q102.5559,47.3717 102.4741,47.2899 Q102.331,47.1263 102.0652,47.0309 Q101.7993,46.9355 101.5267,46.9355 Q101.1927,46.9355 100.9167,47.0786 Q100.6407,47.2217 100.426,47.5489 Q100.2113,47.8761 100.2113,48.3259 L100.2113,48.803 Q100.2113,49.3414 100.5998,49.6993 Q100.9883,50.0571 101.6835,50.0571 Q102.0924,50.0571 102.3787,49.948 Q102.5491,49.8799 102.7331,49.689 Q102.849,49.5732 102.9137,49.5391 Q102.9785,49.505 103.0671,49.505 Q103.2102,49.505 103.3227,49.6175 Q103.4351,49.7299 103.4351,49.8799 Q103.4351,50.0298 103.2852,50.207 Q103.0671,50.4592 102.7195,50.6023 Q102.2492,50.8 101.6835,50.8 Q101.0224,50.8 100.4975,50.5274 Q100.0682,50.3093 99.7683,49.8424 Q99.4684,49.3755 99.4684,48.8166 L99.4684,48.3123 Q99.4684,47.7329 99.7376,47.232 Q100.0068,46.731 100.4839,46.4618 Q100.961,46.1926 101.4995,46.1926 Q101.8198,46.1926 102.1026,46.2641 Q102.3855,46.3357 102.624,46.4925 Z "/><text fill="#FFFFFF" font-family="Consolas" font-size="8.7241" lengthAdjust="spacingAndGlyphs" textLength="95.9651" x="107.5245" y="51.8999">SDDParameterProvider</text><line style="stroke: #FFFFFF; stroke-width: 0.6543075245365322;" x1="95.3108" x2="204.3621" y1="55.5804" y2="55.5804"/><line style="stroke: #FFFFFF; stroke-width: 0.6543075245365322;" x1="95.3108" x2="204.3621" y1="59.07" y2="59.07"/><ellipse cx="99.6728" cy="64.2783" fill="#84BE84" rx="1.3086" ry="1.3086" style="stroke: #038048; stroke-width: 0.4362050163576881;"/><text fill="#FFFFFF" font-family="Consolas" font-size="4.7983" lengthAdjust="spacingAndGlyphs" textLength="75.8997" x="103.5987" y="65.6084">String getExtractionFormula()</text><ellipse cx="99.6728" cy="69.8965" fill="#84BE84" rx="1.3086" ry="1.3086" style="stroke: #038048; stroke-width: 0.4362050163576881;"/><text fill="#FFFFFF" font-family="Consolas" font-size="4.7983" lengthAdjust="spacingAndGlyphs" textLength="86.3686" x="103.5987" y="71.2267">void setExtractionFormula(String)</text><ellipse cx="99.6728" cy="75.5148" fill="#84BE84" rx="1.3086" ry="1.3086" style="stroke: #038048; stroke-width: 0.4362050163576881;"/><text fill="#FFFFFF" font-family="Consolas" font-size="4.7983" lengthAdjust="spacingAndGlyphs" textLength="44.4929" x="103.5987" y="76.8449">boolean isEmpty()</text><ellipse cx="99.6728" cy="81.1331" fill="#84BE84" rx="1.3086" ry="1.3086" style="stroke: #038048; stroke-width: 0.4362050163576881;"/><text fill="#FFFFFF" font-family="Consolas" font-size="4.7983" lengthAdjust="spacingAndGlyphs" textLength="73.2824" x="103.5987" y="82.4632">SDDParameterProvider clone()</text><ellipse cx="99.6728" cy="86.7513" fill="#84BE84" rx="1.3086" ry="1.3086" style="stroke: #038048; stroke-width: 0.4362050163576881;"/><text fill="#FFFFFF" font-family="Consolas" font-size="4.7983" lengthAdjust="spacingAndGlyphs" textLength="49.7274" x="103.5987" y="88.0815">setMxObject(Object)</text><ellipse cx="99.6728" cy="92.3696" fill="#84BE84" rx="1.3086" ry="1.3086" style="stroke: #038048; stroke-width: 0.4362050163576881;"/><text fill="#FFFFFF" font-family="Consolas" font-size="4.7983" lengthAdjust="spacingAndGlyphs" textLength="73.2824" x="103.5987" y="93.6997">updateWithXmlEntry(XmlEntry)</text><ellipse cx="99.6728" cy="97.9879" fill="#84BE84" rx="1.3086" ry="1.3086" style="stroke: #038048; stroke-width: 0.4362050163576881;"/><text fill="#FFFFFF" font-family="Consolas" font-size="4.7983" lengthAdjust="spacingAndGlyphs" textLength="65.4308" x="103.5987" y="99.318">Set&lt;String&gt; getContexts()</text><ellipse cx="99.6728" cy="103.6061" fill="#84BE84" rx="1.3086" ry="1.3086" style="stroke: #038048; stroke-width: 0.4362050163576881;"/><text fill="#FFFFFF" font-family="Consolas" font-size="4.7983" lengthAdjust="spacingAndGlyphs" textLength="81.1341" x="103.5987" y="104.9363">Map&lt;String, Object&gt; getFields()</text><polygon fill="#FBFB77" points="105.5616,3.4896,105.5616,14.4915,194.1112,14.4915,194.1112,7.8517,189.7492,3.4896,105.5616,3.4896" style="stroke: #A80036; stroke-width: 0.4362050163576881;"/><polygon fill="#FBFB77" points="105.5616,3.4896,105.5616,14.4915,148.0916,14.4915,149.8364,40.9448,151.5812,14.4915,194.1112,14.4915,194.1112,7.8517,189.7492,3.4896,105.5616,3.4896" style="stroke: #A80036; stroke-width: 0.4362050163576881;"/><line style="stroke: #A80036; stroke-width: 0.4362050163576881;" x1="189.7492" x2="189.7492" y1="3.4896" y2="7.8517"/><line style="stroke: #A80036; stroke-width: 0.4362050163576881;" x1="194.1112" x2="189.7492" y1="7.8517" y2="7.8517"/><text fill="#000000" font-family="Consolas" font-size="5.6707" lengthAdjust="spacingAndGlyphs" textLength="79.3893" x="108.1788" y="11.3358">Transformation Input Model</text><rect fill="#337788" height="77.7391" style="stroke: #FFFFFF; stroke-width: 0.6543075245365322;" width="133.9149" x="2.6172" y="160.5234"/><ellipse cx="9.1603" cy="167.812" fill="#A9DCDF" rx="4.7983" ry="4.7983" style="stroke: #FFFFFF; stroke-width: 0.4362050163576881;"/><path d="M10.1145,168.5822 L8.3083,168.5822 L8.1243,169.032 L8.3083,169.032 Q8.5742,169.032 8.69,169.1342 Q8.8059,169.2365 8.8059,169.4069 Q8.8059,169.5704 8.69,169.6727 Q8.5742,169.7749 8.3083,169.7749 L7.3064,169.7749 Q7.0406,169.7749 6.9282,169.6727 Q6.8157,169.5704 6.8157,169.4 Q6.8157,169.2365 6.935,169.1308 Q7.0543,169.0252 7.3269,169.032 L8.4924,166.1285 L8.0085,166.1285 Q7.7426,166.1285 7.6268,166.0263 Q7.5109,165.924 7.5109,165.7536 Q7.5109,165.5901 7.6268,165.4878 Q7.7426,165.3856 8.0085,165.3856 L9.6101,165.3856 L11.0891,169.032 Q11.3481,169.032 11.4299,169.0933 Q11.6003,169.2092 11.6003,169.4069 Q11.6003,169.5704 11.4879,169.6727 Q11.3754,169.7749 11.1096,169.7749 L10.1077,169.7749 Q9.8419,169.7749 9.726,169.6727 Q9.6101,169.5704 9.6101,169.4 Q9.6101,169.2365 9.726,169.1342 Q9.8419,169.032 10.1077,169.032 L10.2917,169.032 L10.1145,168.5822 Z M9.801,167.8393 L9.208,166.3671 L8.6082,167.8393 L9.801,167.8393 Z "/><text fill="#FFFFFF" font-family="Consolas" font-size="8.7241" font-style="italic" lengthAdjust="spacingAndGlyphs" textLength="119.9564" x="15.2672" y="171.4201">AbstractParameterProvider</text><line style="stroke: #FFFFFF; stroke-width: 0.6543075245365322;" x1="3.0534" x2="136.096" y1="175.1005" y2="175.1005"/><line style="stroke: #FFFFFF; stroke-width: 0.6543075245365322;" x1="3.0534" x2="136.096" y1="178.5902" y2="178.5902"/><ellipse cx="7.4155" cy="183.7984" fill="#84BE84" rx="1.3086" ry="1.3086" style="stroke: #038048; stroke-width: 0.4362050163576881;"/><text fill="#FFFFFF" font-family="Consolas" font-size="4.7983" lengthAdjust="spacingAndGlyphs" textLength="81.1341" x="11.3413" y="185.1286">Map&lt;String, Object&gt; getFields()</text><ellipse cx="7.4155" cy="189.4167" fill="#84BE84" rx="1.3086" ry="1.3086" style="stroke: #038048; stroke-width: 0.4362050163576881;"/><text fill="#FFFFFF" font-family="Consolas" font-size="4.7983" lengthAdjust="spacingAndGlyphs" textLength="91.6031" x="11.3413" y="190.7468">Map&lt;String, Object&gt; getParameters()</text><ellipse cx="7.4155" cy="195.035" fill="#84BE84" rx="1.3086" ry="1.3086" style="stroke: #038048; stroke-width: 0.4362050163576881;"/><text fill="#FFFFFF" font-family="Consolas" font-size="4.7983" lengthAdjust="spacingAndGlyphs" textLength="96.8375" x="11.3413" y="196.3651">TraceableDocument getDocument(String)</text><ellipse cx="7.4155" cy="200.6532" fill="#84BE84" rx="1.3086" ry="1.3086" style="stroke: #038048; stroke-width: 0.4362050163576881;"/><text fill="#FFFFFF" font-family="Consolas" font-size="4.7983" lengthAdjust="spacingAndGlyphs" textLength="60.1963" x="11.3413" y="201.9834">Object getField(String)</text><ellipse cx="7.4155" cy="206.2715" fill="#84BE84" rx="1.3086" ry="1.3086" style="stroke: #038048; stroke-width: 0.4362050163576881;"/><text fill="#FFFFFF" font-family="Consolas" font-size="4.7983" lengthAdjust="spacingAndGlyphs" textLength="70.6652" x="11.3413" y="207.6016">Object getParameter(String)</text><ellipse cx="7.4155" cy="211.8898" fill="#84BE84" rx="1.3086" ry="1.3086" style="stroke: #038048; stroke-width: 0.4362050163576881;"/><text fill="#FFFFFF" font-family="Consolas" font-size="4.7983" lengthAdjust="spacingAndGlyphs" textLength="83.7514" x="11.3413" y="213.2199">String getLocalParameter(String)</text><ellipse cx="7.4155" cy="217.5081" fill="#84BE84" rx="1.3086" ry="1.3086" style="stroke: #038048; stroke-width: 0.4362050163576881;"/><text fill="#FFFFFF" font-family="Consolas" font-size="4.7983" lengthAdjust="spacingAndGlyphs" textLength="86.3686" x="11.3413" y="218.8382">String getGlobalParameter(String)</text><ellipse cx="7.4155" cy="223.1263" fill="#84BE84" rx="1.3086" ry="1.3086" style="stroke: #038048; stroke-width: 0.4362050163576881;"/><text fill="#FFFFFF" font-family="Consolas" font-size="4.7983" lengthAdjust="spacingAndGlyphs" textLength="117.7754" x="11.3413" y="224.4564">Map&lt;String, TraceableDocument&gt; getDocuments()</text><ellipse cx="7.4155" cy="228.7446" fill="#84BE84" rx="1.3086" ry="1.3086" style="stroke: #038048; stroke-width: 0.4362050163576881;"/><text fill="#FFFFFF" font-family="Consolas" font-size="4.7983" lengthAdjust="spacingAndGlyphs" textLength="36.6412" x="11.3413" y="230.0747">Object getBO()</text><ellipse cx="7.4155" cy="234.3629" fill="#84BE84" rx="1.3086" ry="1.3086" style="stroke: #038048; stroke-width: 0.4362050163576881;"/><text fill="#FFFFFF" font-family="Consolas" font-size="4.7983" lengthAdjust="spacingAndGlyphs" textLength="70.6652" x="11.3413" y="235.693">Serializable getKey(String)</text><rect fill="#337788" height="117.0669" style="stroke: #FFFFFF; stroke-width: 0.6543075245365322;" width="173.6096" x="519.3021" y="140.8942"/><ellipse cx="539.4766" cy="148.1828" fill="#ADD1B2" rx="4.7983" ry="4.7983" style="stroke: #FFFFFF; stroke-width: 0.4362050163576881;"/><path d="M540.6829,146.3834 Q540.7511,146.288 540.8329,146.2403 Q540.9147,146.1926 541.0101,146.1926 Q541.1737,146.1926 541.2759,146.305 Q541.3781,146.4175 541.3781,146.6833 L541.3781,147.3172 Q541.3781,147.583 541.2759,147.6988 Q541.1737,147.8147 541.0101,147.8147 Q540.8601,147.8147 540.7715,147.7261 Q540.6829,147.6443 540.6352,147.4194 Q540.6148,147.2626 540.533,147.1809 Q540.3899,147.0173 540.124,146.9219 Q539.8582,146.8264 539.5856,146.8264 Q539.2516,146.8264 538.9756,146.9696 Q538.6996,147.1127 538.4849,147.4399 Q538.2702,147.767 538.2702,148.2168 L538.2702,148.6939 Q538.2702,149.2324 538.6587,149.5902 Q539.0472,149.948 539.7424,149.948 Q540.1513,149.948 540.4376,149.839 Q540.608,149.7708 540.792,149.58 Q540.9079,149.4641 540.9726,149.43 Q541.0374,149.396 541.126,149.396 Q541.2691,149.396 541.3815,149.5084 Q541.494,149.6209 541.494,149.7708 Q541.494,149.9208 541.3441,150.098 Q541.126,150.3502 540.7784,150.4933 Q540.3081,150.6909 539.7424,150.6909 Q539.0812,150.6909 538.5564,150.4183 Q538.127,150.2002 537.8272,149.7333 Q537.5273,149.2665 537.5273,148.7076 L537.5273,148.2032 Q537.5273,147.6239 537.7965,147.1229 Q538.0657,146.622 538.5428,146.3527 Q539.0199,146.0835 539.5583,146.0835 Q539.8787,146.0835 540.1615,146.1551 Q540.4444,146.2267 540.6829,146.3834 Z "/><text fill="#FFFFFF" font-family="Consolas" font-size="8.7241" lengthAdjust="spacingAndGlyphs" textLength="129.5529" x="548.4188" y="151.7908">DataDictionaryFormulaResult</text><line style="stroke: #FFFFFF; stroke-width: 0.6543075245365322;" x1="519.7383" x2="692.4755" y1="155.4713" y2="155.4713"/><line style="stroke: #FFFFFF; stroke-width: 0.6543075245365322;" x1="519.7383" x2="692.4755" y1="158.9609" y2="158.9609"/><ellipse cx="524.1003" cy="164.1692" fill="#84BE84" rx="1.3086" ry="1.3086" style="stroke: #038048; stroke-width: 0.4362050163576881;"/><text fill="#FFFFFF" font-family="Consolas" font-size="4.7983" lengthAdjust="spacingAndGlyphs" textLength="104.6892" x="528.0262" y="165.4993">String getFormulaReturnTypeAsString(int)</text><ellipse cx="524.1003" cy="169.7875" fill="#84BE84" rx="1.3086" ry="1.3086" style="stroke: #038048; stroke-width: 0.4362050163576881;"/><text fill="#FFFFFF" font-family="Consolas" font-size="4.7983" lengthAdjust="spacingAndGlyphs" textLength="88.9858" x="528.0262" y="171.1176">int getFormulaReturnTypeAsInt(int)</text><ellipse cx="524.1003" cy="175.4057" fill="#84BE84" rx="1.3086" ry="1.3086" style="stroke: #038048; stroke-width: 0.4362050163576881;"/><text fill="#FFFFFF" font-family="Consolas" font-size="4.7983" lengthAdjust="spacingAndGlyphs" textLength="36.6412" x="528.0262" y="176.7359">void cleanUp()</text><ellipse cx="524.1003" cy="181.024" fill="#84BE84" rx="1.3086" ry="1.3086" style="stroke: #038048; stroke-width: 0.4362050163576881;"/><text fill="#FFFFFF" font-family="Consolas" font-size="4.7983" lengthAdjust="spacingAndGlyphs" textLength="70.6652" x="528.0262" y="182.3541">void createObject(int, int)</text><ellipse cx="524.1003" cy="186.6423" fill="#84BE84" rx="1.3086" ry="1.3086" style="stroke: #038048; stroke-width: 0.4362050163576881;"/><text fill="#FFFFFF" font-family="Consolas" font-size="4.7983" lengthAdjust="spacingAndGlyphs" textLength="47.1101" x="528.0262" y="187.9724">int getLineCount()</text><ellipse cx="524.1003" cy="192.2606" fill="#84BE84" rx="1.3086" ry="1.3086" style="stroke: #038048; stroke-width: 0.4362050163576881;"/><text fill="#FFFFFF" font-family="Consolas" font-size="4.7983" lengthAdjust="spacingAndGlyphs" textLength="52.3446" x="528.0262" y="193.5907">int getColumnCount()</text><ellipse cx="524.1003" cy="197.8788" fill="#84BE84" rx="1.3086" ry="1.3086" style="stroke: #038048; stroke-width: 0.4362050163576881;"/><text fill="#FFFFFF" font-family="Consolas" font-size="4.7983" lengthAdjust="spacingAndGlyphs" textLength="81.1341" x="528.0262" y="199.209">Object getObjectValue(int, int)</text><ellipse cx="524.1003" cy="203.4971" fill="#84BE84" rx="1.3086" ry="1.3086" style="stroke: #038048; stroke-width: 0.4362050163576881;"/><text fill="#FFFFFF" font-family="Consolas" font-size="4.7983" lengthAdjust="spacingAndGlyphs" textLength="65.4308" x="528.0262" y="204.8272">String getValue(int, int)</text><ellipse cx="524.1003" cy="209.1154" fill="#84BE84" rx="1.3086" ry="1.3086" style="stroke: #038048; stroke-width: 0.4362050163576881;"/><text fill="#FFFFFF" font-family="Consolas" font-size="4.7983" lengthAdjust="spacingAndGlyphs" textLength="68.048" x="528.0262" y="210.4455">void createObject(Element)</text><ellipse cx="524.1003" cy="214.7336" fill="#84BE84" rx="1.3086" ry="1.3086" style="stroke: #038048; stroke-width: 0.4362050163576881;"/><text fill="#FFFFFF" font-family="Consolas" font-size="4.7983" lengthAdjust="spacingAndGlyphs" textLength="88.9858" x="528.0262" y="216.0638">void createObject(SAXSerializable)</text><ellipse cx="524.1003" cy="220.3519" fill="#84BE84" rx="1.3086" ry="1.3086" style="stroke: #038048; stroke-width: 0.4362050163576881;"/><text fill="#FFFFFF" font-family="Consolas" font-size="4.7983" lengthAdjust="spacingAndGlyphs" textLength="141.3304" x="528.0262" y="221.682">void createObject(DataDictionaryFormulaResultCell[][])</text><ellipse cx="524.1003" cy="225.9702" fill="#84BE84" rx="1.3086" ry="1.3086" style="stroke: #038048; stroke-width: 0.4362050163576881;"/><text fill="#FFFFFF" font-family="Consolas" font-size="4.7983" lengthAdjust="spacingAndGlyphs" textLength="81.1341" x="528.0262" y="227.3003">void setColumnTitles(String [])</text><ellipse cx="524.1003" cy="231.5884" fill="#84BE84" rx="1.3086" ry="1.3086" style="stroke: #038048; stroke-width: 0.4362050163576881;"/><text fill="#FFFFFF" font-family="Consolas" font-size="4.7983" lengthAdjust="spacingAndGlyphs" textLength="57.5791" x="528.0262" y="232.9186">boolean isTreeResult()</text><ellipse cx="524.1003" cy="237.2067" fill="#84BE84" rx="1.3086" ry="1.3086" style="stroke: #038048; stroke-width: 0.4362050163576881;"/><text fill="#FFFFFF" font-family="Consolas" font-size="4.7983" lengthAdjust="spacingAndGlyphs" textLength="62.8135" x="528.0262" y="238.5368">boolean isObjectResult()</text><ellipse cx="524.1003" cy="242.825" fill="#84BE84" rx="1.3086" ry="1.3086" style="stroke: #038048; stroke-width: 0.4362050163576881;"/><text fill="#FFFFFF" font-family="Consolas" font-size="4.7983" lengthAdjust="spacingAndGlyphs" textLength="162.2683" x="528.0262" y="244.1551">void setValueAt(int, int, DataDictionaryFormulaResultCell[][])</text><ellipse cx="524.1003" cy="248.4433" fill="#84BE84" rx="1.3086" ry="1.3086" style="stroke: #038048; stroke-width: 0.4362050163576881;"/><text fill="#FFFFFF" font-family="Consolas" font-size="4.7983" lengthAdjust="spacingAndGlyphs" textLength="88.9858" x="528.0262" y="249.7734">void setColumnTitleAt(int, String)</text><ellipse cx="524.1003" cy="254.0615" fill="#84BE84" rx="1.3086" ry="1.3086" style="stroke: #038048; stroke-width: 0.4362050163576881;"/><text fill="#FFFFFF" font-family="Consolas" font-size="4.7983" lengthAdjust="spacingAndGlyphs" textLength="73.2824" x="528.0262" y="255.3916">Object[][] getObjectResult()</text><polygon fill="#FBFB77" points="532.8244,68.7023,532.8244,79.7041,679.3893,79.7041,679.3893,73.0643,675.0273,68.7023,532.8244,68.7023" style="stroke: #A80036; stroke-width: 0.4362050163576881;"/><polygon fill="#FBFB77" points="532.8244,68.7023,532.8244,79.7041,604.3621,79.7041,606.1069,140.8358,607.8517,79.7041,679.3893,79.7041,679.3893,73.0643,675.0273,68.7023,532.8244,68.7023" style="stroke: #A80036; stroke-width: 0.4362050163576881;"/><line style="stroke: #A80036; stroke-width: 0.4362050163576881;" x1="675.0273" x2="675.0273" y1="68.7023" y2="73.0643"/><line style="stroke: #A80036; stroke-width: 0.4362050163576881;" x1="679.3893" x2="675.0273" y1="73.0643" y2="73.0643"/><text fill="#000000" font-family="Consolas" font-size="5.6707" lengthAdjust="spacingAndGlyphs" textLength="137.4046" x="535.4417" y="76.5484">Transformation Output Model / Type Conversion</text><path d="M404.1439,102.2395 C404.1439,122.8816 404.1439,150.9575 404.1439,171.5337 " fill="none" style="stroke: #888888; stroke-width: 0.4362050163576881; stroke-dasharray: 7.0,7.0;"/><polygon fill="none" points="401.0905,102.1963,404.1439,93.4722,407.1974,102.1963,401.0905,102.1963" style="stroke: #888888; stroke-width: 0.4362050163576881;"/><path d="M407.6362,235.8896 C410.1514,261.8892 413.4604,296.1034 415.576,317.9769 " fill="none" style="stroke: #888888; stroke-width: 0.4362050163576881;"/><polygon fill="none" points="404.5841,236.0471,406.7834,227.0691,410.6626,235.4591,404.5841,236.0471" style="stroke: #888888; stroke-width: 0.4362050163576881;"/><path d="M267.2576,340.0218 C276.6434,340.0218 286.0288,340.0218 295.4146,340.0218 " fill="none" style="stroke: #888888; stroke-width: 0.4362050163576881;"/><polygon fill="#888888" points="265.0007,340.0218,268.9265,341.7666,267.1817,340.0218,268.9265,338.277,265.0007,340.0218" style="stroke: #888888; stroke-width: 0.4362050163576881;"/><path d="M204.8606,74.1549 C233.8879,74.1549 270.4087,74.1549 304.2312,74.1549 " fill="none" style="stroke: #888888; stroke-width: 0.4362050163576881;"/><polygon fill="#000000" points="247.1101,68.5325,244.4929,69.8412,247.1101,71.1498,247.1101,68.5325" style="stroke: #000000; stroke-width: 0.4362050163576881;"/><text fill="#000000" font-family="Consolas" font-size="5.6707" lengthAdjust="spacingAndGlyphs" textLength="15.2672" x="249.7274" y="71.5321">input</text><path d="M128.6434,107.4168 C119.6445,121.3557 108.9967,137.8482 99.2371,152.9649 " fill="none" style="stroke: #888888; stroke-width: 0.4362050163576881;"/><polygon fill="none" points="101.6763,154.8166,94.3791,160.4899,96.5457,151.5045,101.6763,154.8166" style="stroke: #888888; stroke-width: 0.4362050163576881;"/><path d="M434.6805,93.3797 C456.253,106.6534 485.8408,124.8619 511.8866,140.8942 C514.2988,142.3795 516.7459,143.8862 519.2192,145.4072 " fill="none" style="stroke: #888888; stroke-width: 0.4362050163576881;"/><text fill="#000000" font-family="Consolas" font-size="5.6707" lengthAdjust="spacingAndGlyphs" textLength="18.3206" x="488.3315" y="126.4939">output</text><polygon fill="#000000" points="507.9607,123.4944,510.578,124.803,507.9607,126.1116,507.9607,123.4944" style="stroke: #000000; stroke-width: 0.4362050163576881;"/></g></svg>