<?xml version="1.0" encoding="UTF-8" standalone="yes"?><svg xmlns="http://www.w3.org/2000/svg" xmlns:xlink="http://www.w3.org/1999/xlink" height="118pt" style="width:667px;height:118px;" version="1.1" viewBox="0 0 667 118" width="667pt"><defs/><g><ellipse cx="107" cy="18" fill="#FFFFFF" rx="10" ry="10" style="stroke: none; stroke-width: 1.0;"/><rect fill="#FFFFFF" height="49.2725" rx="12.5" ry="12.5" style="stroke: #888888; stroke-width: 1.5;" width="202" x="6" y="68.5"/><text fill="#888888" font-family="Consolas" font-size="25" lengthAdjust="spacingAndGlyphs" textLength="182" x="16" y="101.3394">Internal Step</text><rect fill="#FFFFFF" height="49.2725" rx="12.5" ry="12.5" style="stroke: #BB3322; stroke-width: 1.5;" width="174" x="228" y="68.5"/><text fill="#BB3322" font-family="Consolas" font-size="25" lengthAdjust="spacingAndGlyphs" textLength="154" x="238" y="101.3394">Happen Once</text><rect fill="#FFFFFF" height="49.2725" rx="12.5" ry="12.5" style="stroke: #337788; stroke-width: 1.5;" width="244" x="422" y="68.5"/><text fill="#337788" font-family="Consolas" font-size="25" lengthAdjust="spacingAndGlyphs" textLength="224" x="432" y="101.3394">Loop on Elements</text><path d="M107,28.2455 C107,37.0409 107,50.7416 107,63.1917 " fill="none" style="stroke: #FFFFFF; stroke-width: 1.0;"/><polygon fill="#FFFFFF" points="107,68.4329,111,59.4329,107,63.4329,103,59.4329,107,68.4329" style="stroke: #FFFFFF; stroke-width: 1.0;"/><path d="M208.156,93 C212.958,93 217.76,93 222.562,93 " fill="none" style="stroke: #FFFFFF; stroke-width: 1.0;"/><polygon fill="#FFFFFF" points="227.772,93,218.772,89,222.772,93,218.772,97,227.772,93" style="stroke: #FFFFFF; stroke-width: 1.0;"/><path d="M402.217,93 C407.03,93 411.843,93 416.656,93 " fill="none" style="stroke: #FFFFFF; stroke-width: 1.0;"/><polygon fill="#FFFFFF" points="421.878,93,412.878,89,416.878,93,412.878,97,421.878,93" style="stroke: #FFFFFF; stroke-width: 1.0;"/></g></svg>