<?xml version="1.0" encoding="UTF-8" standalone="yes"?><svg xmlns="http://www.w3.org/2000/svg" xmlns:xlink="http://www.w3.org/1999/xlink" height="112pt" style="width:547px;height:112px;" version="1.1" viewBox="0 0 547 112" width="547pt"><defs/><g><ellipse cx="87.25" cy="18" fill="#FFFFFF" rx="10" ry="10" style="stroke: none; stroke-width: 1.0;"/><rect fill="#888888" height="43.418" rx="12.5" ry="12.5" style="stroke: #FFFFFF; stroke-width: 1.5;" width="163" x="6" y="68.5"/><text fill="#FFFFFF" font-family="Consolas" font-size="20" lengthAdjust="spacingAndGlyphs" textLength="143" x="16" y="96.7715">Internal Step</text><rect fill="#BB3322" height="43.418" rx="12.5" ry="12.5" style="stroke: #FFFFFF; stroke-width: 1.5;" width="141" x="189" y="68.5"/><text fill="#FFFFFF" font-family="Consolas" font-size="20" lengthAdjust="spacingAndGlyphs" textLength="121" x="199" y="96.7715">Happen Once</text><rect fill="#337788" height="43.418" rx="12.5" ry="12.5" style="stroke: #FFFFFF; stroke-width: 1.5;" width="196" x="350.25" y="68.5"/><text fill="#FFFFFF" font-family="Consolas" font-size="20" lengthAdjust="spacingAndGlyphs" textLength="176" x="360.25" y="96.7715">Loop on Elements</text><path d="M87.25,28.1513 C87.25,37.0362 87.25,50.9425 87.25,63.2192 " fill="none" style="stroke: #FFFFFF; stroke-width: 1.0;"/><polygon fill="#FFFFFF" points="87.25,68.3615,91.25,59.3615,87.25,63.3615,83.25,59.3615,87.25,68.3615" style="stroke: #FFFFFF; stroke-width: 1.0;"/><path d="M168.547,90 C173.596,90 178.645,90 183.694,90 " fill="none" style="stroke: #FFFFFF; stroke-width: 1.0;"/><polygon fill="#FFFFFF" points="188.742,90,179.742,86,183.742,90,179.742,94,188.742,90" style="stroke: #FFFFFF; stroke-width: 1.0;"/><path d="M329.756,90 C334.847,90 339.939,90 345.03,90 " fill="none" style="stroke: #FFFFFF; stroke-width: 1.0;"/><polygon fill="#FFFFFF" points="350.122,90,341.122,86,345.122,90,341.122,94,350.122,90" style="stroke: #FFFFFF; stroke-width: 1.0;"/></g></svg>