<?xml version="1.0" encoding="UTF-8" standalone="yes"?><svg xmlns="http://www.w3.org/2000/svg" xmlns:xlink="http://www.w3.org/1999/xlink" height="489pt" style="width:717px;height:489px;" version="1.1" viewBox="0 0 717 489" width="717pt"><defs/><g><ellipse cx="16" cy="53" fill="#000000" rx="10" ry="10" style="stroke: none; stroke-width: 1.0;"/><rect fill="#888888" height="66.8359" rx="12.5" ry="12.5" style="stroke: #FFFFFF; stroke-width: 1.5;" width="130" x="46" y="19.5"/><text fill="#FFFFFF" font-family="Consolas" font-size="20" lengthAdjust="spacingAndGlyphs" textLength="110" x="56" y="47.7715">Deployment</text><text fill="#FFFFFF" font-family="Consolas" font-size="20" lengthAdjust="spacingAndGlyphs" textLength="55" x="83.5" y="71.1895">Start</text><rect fill="#BB3322" height="90.2539" rx="12.5" ry="12.5" style="stroke: #FFFFFF; stroke-width: 1.5;" width="119" x="196.75" y="8"/><text fill="#FFFFFF" font-family="Consolas" font-size="20" lengthAdjust="spacingAndGlyphs" textLength="66" x="223.25" y="36.2715">Before</text><text fill="#FFFFFF" font-family="Consolas" font-size="20" lengthAdjust="spacingAndGlyphs" textLength="44" x="234.25" y="59.6895">Bean</text><text fill="#FFFFFF" font-family="Consolas" font-size="20" lengthAdjust="spacingAndGlyphs" textLength="99" x="206.75" y="83.1074">Discovery</text><rect fill="#888888" height="66.8359" rx="12.5" ry="12.5" style="stroke: #FFFFFF; stroke-width: 1.5;" width="97" x="335.75" y="19.5"/><text fill="#FFFFFF" font-family="Consolas" font-size="20" lengthAdjust="spacingAndGlyphs" textLength="44" x="362.25" y="47.7715">Scan</text><text fill="#FFFFFF" font-family="Consolas" font-size="20" lengthAdjust="spacingAndGlyphs" textLength="77" x="345.75" y="71.1895">Archive</text><rect fill="#337788" height="90.2539" rx="12.5" ry="12.5" style="stroke: #FFFFFF; stroke-width: 1.5;" width="119" x="452.75" y="8"/><text fill="#FFFFFF" font-family="Consolas" font-size="20" lengthAdjust="spacingAndGlyphs" textLength="77" x="473.75" y="36.2715">Process</text><text fill="#FFFFFF" font-family="Consolas" font-size="20" lengthAdjust="spacingAndGlyphs" textLength="99" x="462.75" y="59.6895">Annotated</text><text fill="#FFFFFF" font-family="Consolas" font-size="20" lengthAdjust="spacingAndGlyphs" textLength="44" x="490.25" y="83.1074">Type</text><rect fill="#BB3322" height="90.2539" rx="12.5" ry="12.5" style="stroke: #FFFFFF; stroke-width: 1.5;" width="119" x="591.75" y="8"/><text fill="#FFFFFF" font-family="Consolas" font-size="20" lengthAdjust="spacingAndGlyphs" textLength="55" x="623.75" y="36.2715">After</text><text fill="#FFFFFF" font-family="Consolas" font-size="20" lengthAdjust="spacingAndGlyphs" textLength="44" x="629.25" y="59.6895">Type</text><text fill="#FFFFFF" font-family="Consolas" font-size="20" lengthAdjust="spacingAndGlyphs" textLength="99" x="601.75" y="83.1074">Discovery</text><rect fill="#337788" height="90.2539" rx="12.5" ry="12.5" style="stroke: #FFFFFF; stroke-width: 1.5;" width="130" x="586" y="138"/><text fill="#FFFFFF" font-family="Consolas" font-size="20" lengthAdjust="spacingAndGlyphs" textLength="77" x="612.5" y="166.2715">Process</text><text fill="#FFFFFF" font-family="Consolas" font-size="20" lengthAdjust="spacingAndGlyphs" textLength="44" x="629" y="189.6895">Bean</text><text fill="#FFFFFF" font-family="Consolas" font-size="20" lengthAdjust="spacingAndGlyphs" textLength="110" x="596" y="213.1074">Attributes</text><rect fill="#337788" height="90.2539" rx="12.5" ry="12.5" style="stroke: #FFFFFF; stroke-width: 1.5;" width="119" x="446.75" y="138"/><text fill="#FFFFFF" font-family="Consolas" font-size="20" lengthAdjust="spacingAndGlyphs" textLength="77" x="467.75" y="166.2715">Process</text><text fill="#FFFFFF" font-family="Consolas" font-size="20" lengthAdjust="spacingAndGlyphs" textLength="99" x="456.75" y="189.6895">Injection</text><text fill="#FFFFFF" font-family="Consolas" font-size="20" lengthAdjust="spacingAndGlyphs" textLength="66" x="473.25" y="213.1074">Target</text><rect fill="#337788" height="90.2539" rx="12.5" ry="12.5" style="stroke: #FFFFFF; stroke-width: 1.5;" width="119" x="307.75" y="138"/><text fill="#FFFFFF" font-family="Consolas" font-size="20" lengthAdjust="spacingAndGlyphs" textLength="77" x="328.75" y="166.2715">Process</text><text fill="#FFFFFF" font-family="Consolas" font-size="20" lengthAdjust="spacingAndGlyphs" textLength="99" x="317.75" y="189.6895">Injection</text><text fill="#FFFFFF" font-family="Consolas" font-size="20" lengthAdjust="spacingAndGlyphs" textLength="55" x="339.75" y="213.1074">Point</text><rect fill="#888888" height="90.2539" rx="12.5" ry="12.5" style="stroke: #FFFFFF; stroke-width: 1.5;" width="141" x="146.75" y="138"/><text fill="#FFFFFF" font-family="Consolas" font-size="20" lengthAdjust="spacingAndGlyphs" textLength="44" x="195.25" y="166.2715">Bean</text><text fill="#FFFFFF" font-family="Consolas" font-size="20" lengthAdjust="spacingAndGlyphs" textLength="121" x="156.75" y="189.6895">Eligibility</text><text fill="#FFFFFF" font-family="Consolas" font-size="20" lengthAdjust="spacingAndGlyphs" textLength="55" x="189.75" y="213.1074">Check</text><rect fill="#337788" height="66.8359" rx="12.5" ry="12.5" style="stroke: #FFFFFF; stroke-width: 1.5;" width="97" x="168.75" y="279.5"/><text fill="#FFFFFF" font-family="Consolas" font-size="20" lengthAdjust="spacingAndGlyphs" textLength="77" x="178.75" y="307.7715">Process</text><text fill="#FFFFFF" font-family="Consolas" font-size="20" lengthAdjust="spacingAndGlyphs" textLength="44" x="195.25" y="331.1895">Bean</text><rect fill="#337788" height="66.8359" rx="12.5" ry="12.5" style="stroke: #FFFFFF; stroke-width: 1.5;" width="108" x="286" y="279.5"/><text fill="#FFFFFF" font-family="Consolas" font-size="20" lengthAdjust="spacingAndGlyphs" textLength="77" x="301.5" y="307.7715">Process</text><text fill="#FFFFFF" font-family="Consolas" font-size="20" lengthAdjust="spacingAndGlyphs" textLength="88" x="296" y="331.1895">Producer</text><rect fill="#337788" height="90.2539" rx="12.5" ry="12.5" style="stroke: #FFFFFF; stroke-width: 1.5;" width="108" x="414" y="268"/><text fill="#FFFFFF" font-family="Consolas" font-size="20" lengthAdjust="spacingAndGlyphs" textLength="77" x="429.5" y="296.2715">Process</text><text fill="#FFFFFF" font-family="Consolas" font-size="20" lengthAdjust="spacingAndGlyphs" textLength="88" x="424" y="319.6895">Observer</text><text fill="#FFFFFF" font-family="Consolas" font-size="20" lengthAdjust="spacingAndGlyphs" textLength="66" x="435" y="343.1074">Method</text><rect fill="#BB3322" height="90.2539" rx="12.5" ry="12.5" style="stroke: #FFFFFF; stroke-width: 1.5;" width="119" x="542.75" y="268"/><text fill="#FFFFFF" font-family="Consolas" font-size="20" lengthAdjust="spacingAndGlyphs" textLength="55" x="574.75" y="296.2715">After</text><text fill="#FFFFFF" font-family="Consolas" font-size="20" lengthAdjust="spacingAndGlyphs" textLength="44" x="580.25" y="319.6895">Bean</text><text fill="#FFFFFF" font-family="Consolas" font-size="20" lengthAdjust="spacingAndGlyphs" textLength="99" x="552.75" y="343.1074">Discovery</text><rect fill="#BB3322" height="90.2539" rx="12.5" ry="12.5" style="stroke: #FFFFFF; stroke-width: 1.5;" width="130" x="537" y="398"/><text fill="#FFFFFF" font-family="Consolas" font-size="20" lengthAdjust="spacingAndGlyphs" textLength="55" x="574.5" y="426.2715">After</text><text fill="#FFFFFF" font-family="Consolas" font-size="20" lengthAdjust="spacingAndGlyphs" textLength="110" x="547" y="449.6895">Deployment</text><text fill="#FFFFFF" font-family="Consolas" font-size="20" lengthAdjust="spacingAndGlyphs" textLength="110" x="547" y="473.1074">Validation</text><rect fill="#888888" height="66.8359" rx="12.5" ry="12.5" style="stroke: #FFFFFF; stroke-width: 1.5;" width="141" x="375.75" y="409.5"/><text fill="#FFFFFF" font-family="Consolas" font-size="20" lengthAdjust="spacingAndGlyphs" textLength="121" x="385.75" y="437.7715">Application</text><text fill="#FFFFFF" font-family="Consolas" font-size="20" lengthAdjust="spacingAndGlyphs" textLength="77" x="407.75" y="461.1895">Running</text><rect fill="#BB3322" height="66.8359" rx="12.5" ry="12.5" style="stroke: #FFFFFF; stroke-width: 1.5;" width="108" x="247" y="409.5"/><text fill="#FFFFFF" font-family="Consolas" font-size="20" lengthAdjust="spacingAndGlyphs" textLength="66" x="268" y="437.7715">Before</text><text fill="#FFFFFF" font-family="Consolas" font-size="20" lengthAdjust="spacingAndGlyphs" textLength="88" x="257" y="461.1895">Shutdown</text><rect fill="#888888" height="66.8359" rx="12.5" ry="12.5" style="stroke: #FFFFFF; stroke-width: 1.5;" width="141" x="85.75" y="409.5"/><text fill="#FFFFFF" font-family="Consolas" font-size="20" lengthAdjust="spacingAndGlyphs" textLength="88" x="112.25" y="437.7715">Undeploy</text><text fill="#FFFFFF" font-family="Consolas" font-size="20" lengthAdjust="spacingAndGlyphs" textLength="121" x="95.75" y="461.1895">Application</text><ellipse cx="55" cy="443" fill="none" rx="10" ry="10" style="stroke: #000000; stroke-width: 1.0;"/><ellipse cx="55.5" cy="443.5" fill="#000000" rx="6" ry="6" style="stroke: none; stroke-width: 1.0;"/><path d="M26.0195,53 C30.8951,53 35.7707,53 40.6463,53 " fill="none" style="stroke: #888888; stroke-width: 1.0;"/><polygon fill="#888888" points="45.9368,53,36.9368,49,40.9368,53,36.9368,57,45.9368,53" style="stroke: #888888; stroke-width: 1.0;"/><path d="M176.137,53 C181.284,53 186.432,53 191.579,53 " fill="none" style="stroke: #888888; stroke-width: 1.0;"/><polygon fill="#888888" points="196.726,53,187.726,49,191.726,53,187.726,57,196.726,53" style="stroke: #888888; stroke-width: 1.0;"/><path d="M315.5,53 C320.517,53 325.534,53 330.551,53 " fill="none" style="stroke: #888888; stroke-width: 1.0;"/><polygon fill="#888888" points="335.568,53,326.568,49,330.568,53,326.568,57,335.568,53" style="stroke: #888888; stroke-width: 1.0;"/><path d="M432.5,53 C437.546,53 442.593,53 447.639,53 " fill="none" style="stroke: #888888; stroke-width: 1.0;"/><polygon fill="#888888" points="452.686,53,443.686,49,447.686,53,443.686,57,452.686,53" style="stroke: #888888; stroke-width: 1.0;"/><path d="M571.455,53 C576.504,53 581.554,53 586.603,53 " fill="none" style="stroke: #888888; stroke-width: 1.0;"/><polygon fill="#888888" points="591.652,53,582.652,49,586.652,53,582.652,57,591.652,53" style="stroke: #888888; stroke-width: 1.0;"/><path d="M651,98.05 C651,109.213 651,121.275 651,132.68 " fill="none" style="stroke: #888888; stroke-width: 1.0;"/><polygon fill="#888888" points="651,137.868,655,128.868,651,132.868,647,128.868,651,137.868" style="stroke: #888888; stroke-width: 1.0;"/><path d="M570.568,183 C575.662,183 580.757,183 585.852,183 " fill="none" style="stroke: #888888; stroke-width: 1.0;"/><polygon fill="#888888" points="565.473,183,574.473,187,570.473,183,574.473,179,565.473,183" style="stroke: #888888; stroke-width: 1.0;"/><path d="M431.504,183 C436.554,183 441.603,183 446.652,183 " fill="none" style="stroke: #888888; stroke-width: 1.0;"/><polygon fill="#888888" points="426.455,183,435.455,187,431.455,183,435.455,179,426.455,183" style="stroke: #888888; stroke-width: 1.0;"/><path d="M292.371,183 C297.429,183 302.487,183 307.546,183 " fill="none" style="stroke: #888888; stroke-width: 1.0;"/><polygon fill="#888888" points="287.312,183,296.312,187,292.312,183,296.312,179,287.312,183" style="stroke: #888888; stroke-width: 1.0;"/><path d="M217,228.05 C217,242.993 217,259.547 217,273.979 " fill="none" style="stroke: #888888; stroke-width: 1.0;"/><polygon fill="#888888" points="217,279.193,221,270.193,217,274.193,213,270.193,217,279.193" style="stroke: #888888; stroke-width: 1.0;"/><path d="M265.527,313 C270.618,313 275.709,313 280.8,313 " fill="none" style="stroke: #888888; stroke-width: 1.0;"/><polygon fill="#888888" points="285.891,313,276.891,309,280.891,313,276.891,317,285.891,313" style="stroke: #888888; stroke-width: 1.0;"/><path d="M394.5,313 C399.209,313 403.918,313 408.627,313 " fill="none" style="stroke: #888888; stroke-width: 1.0;"/><polygon fill="#888888" points="413.736,313,404.736,309,408.736,313,404.736,317,413.736,313" style="stroke: #888888; stroke-width: 1.0;"/><path d="M522.176,313 C527.243,313 532.31,313 537.377,313 " fill="none" style="stroke: #888888; stroke-width: 1.0;"/><polygon fill="#888888" points="542.444,313,533.444,309,537.444,313,533.444,317,542.444,313" style="stroke: #888888; stroke-width: 1.0;"/><path d="M602,358.05 C602,369.213 602,381.275 602,392.6802 " fill="none" style="stroke: #888888; stroke-width: 1.0;"/><polygon fill="#888888" points="602,397.8685,606,388.8685,602,392.8685,598,388.8685,602,397.8685" style="stroke: #888888; stroke-width: 1.0;"/><path d="M521.483,443 C526.583,443 531.684,443 536.784,443 " fill="none" style="stroke: #888888; stroke-width: 1.0;"/><polygon fill="#888888" points="516.383,443,525.383,447,521.383,443,525.383,439,516.383,443" style="stroke: #888888; stroke-width: 1.0;"/><path d="M360.241,443 C365.39,443 370.539,443 375.688,443 " fill="none" style="stroke: #888888; stroke-width: 1.0;"/><polygon fill="#888888" points="355.092,443,364.092,447,360.092,443,364.092,439,355.092,443" style="stroke: #888888; stroke-width: 1.0;"/><path d="M231.609,443 C236.701,443 241.792,443 246.884,443 " fill="none" style="stroke: #888888; stroke-width: 1.0;"/><polygon fill="#888888" points="226.518,443,235.518,447,231.518,443,235.518,439,226.518,443" style="stroke: #888888; stroke-width: 1.0;"/><path d="M70.3089,443 C75.36,443 80.411,443 85.4621,443 " fill="none" style="stroke: #888888; stroke-width: 1.0;"/><polygon fill="#888888" points="65.2578,443,74.2578,447,70.2578,443,74.2578,439,65.2578,443" style="stroke: #888888; stroke-width: 1.0;"/></g></svg>