<?xml version="1.0" encoding="UTF-8" standalone="yes"?><svg xmlns="http://www.w3.org/2000/svg" xmlns:xlink="http://www.w3.org/1999/xlink" height="985pt" style="width:1813px;height:985px;" version="1.1" viewBox="0 0 1813 985" width="1813pt"><defs/><g><text fill="#000000" font-family="sans-serif" font-size="30" font-weight="bold" lengthAdjust="spacingAndGlyphs" textLength="314" x="20" y="43.832">Application lifecycle</text><line style="stroke: #000000; stroke-width: 2.0;" x1="10" x2="10" y1="14.8281" y2="984.6743"/><ellipse cx="172" cy="60.1602" fill="#000000" rx="10" ry="10" style="stroke: none; stroke-width: 1.0;"/><polygon fill="#BB3322" points="57.5,90.1602,286.5,90.1602,296.5,111.8691,286.5,133.5781,57.5,133.5781" style="stroke: #FFFFFF; stroke-width: 1.5;"/><text fill="#FFFFFF" font-family="Consolas" font-size="20" lengthAdjust="spacingAndGlyphs" textLength="209" x="67.5" y="118.4316">BeforeBeanDiscovery</text><polygon fill="#BB3322" points="63,355.3306,281,355.3306,291,377.0396,281,398.7485,63,398.7485" style="stroke: #FFFFFF; stroke-width: 1.5;"/><text fill="#FFFFFF" font-family="Consolas" font-size="20" lengthAdjust="spacingAndGlyphs" textLength="198" x="73" y="383.6021">AfterTypeDiscovery</text><polygon fill="#BB3322" points="63,837.8384,281,837.8384,291,859.5474,281,881.2563,63,881.2563" style="stroke: #FFFFFF; stroke-width: 1.5;"/><text fill="#FFFFFF" font-family="Consolas" font-size="20" lengthAdjust="spacingAndGlyphs" textLength="198" x="73" y="866.1099">AfterBeanDiscovery</text><polygon fill="#BB3322" points="24.5,901.2563,319.5,901.2563,329.5,922.9653,319.5,944.6743,24.5,944.6743" style="stroke: #FFFFFF; stroke-width: 1.5;"/><text fill="#FFFFFF" font-family="Consolas" font-size="20" lengthAdjust="spacingAndGlyphs" textLength="275" x="34.5" y="929.5278">AfterDeploymentValidation</text><ellipse cx="172" cy="974.6743" fill="none" rx="10" ry="10" style="stroke: #000000; stroke-width: 1.0;"/><ellipse cx="172.5" cy="975.1743" fill="#000000" rx="6" ry="6" style="stroke: none; stroke-width: 1.0;"/><text fill="#000000" font-family="sans-serif" font-size="30" font-weight="bold" lengthAdjust="spacingAndGlyphs" textLength="239" x="401" y="43.832">Type Discovery</text><line style="stroke: #000000; stroke-width: 2.0;" x1="344" x2="344" y1="14.8281" y2="984.6743"/><rect fill="#888888" height="6" rx="2.5" ry="2.5" style="stroke: #888888; stroke-width: 1.0;" width="301" x="370" y="217.9126"/><polygon fill="#337788" points="384,243.9126,657,243.9126,667,265.6216,657,287.3306,384,287.3306" style="stroke: #FFFFFF; stroke-width: 1.5;"/><text fill="#FFFFFF" font-family="Consolas" font-size="20" lengthAdjust="spacingAndGlyphs" textLength="253" x="394" y="272.1841">ProcessAnnotatedType&lt;X&gt;</text><rect fill="#888888" height="6" rx="2.5" ry="2.5" style="stroke: #888888; stroke-width: 1.0;" width="301" x="370" y="307.3306"/><polygon fill="#337788" points="444.5,153.5781,596.5,153.5781,608.5,169.9707,596.5,186.3633,444.5,186.3633,432.5,169.9707,444.5,153.5781" style="stroke: #FFFFFF; stroke-width: 1.5;"/><text fill="#000000" font-family="Consolas" font-size="11" lengthAdjust="spacingAndGlyphs" textLength="18" x="524.5" y="196.4126">yes</text><text fill="#FFFFFF" font-family="Consolas" font-size="14" lengthAdjust="spacingAndGlyphs" textLength="112" x="444.5" y="166.3682">while types in</text><text fill="#FFFFFF" font-family="Consolas" font-size="14" lengthAdjust="spacingAndGlyphs" textLength="152" x="444.5" y="182.7607">deployment archive?</text><text fill="#000000" font-family="Consolas" font-size="11" lengthAdjust="spacingAndGlyphs" textLength="12" x="420.5" y="167.1401">no</text><polygon fill="#888888" points="679,243.4253,683,233.4253,687,243.4253,683,239.4253" style="stroke: #888888; stroke-width: 1.0;"/><polygon fill="#888888" points="354,247.4253,358,257.4253,362,247.4253,358,251.4253" style="stroke: #888888; stroke-width: 1.0;"/><text fill="#000000" font-family="sans-serif" font-size="30" font-weight="bold" lengthAdjust="spacingAndGlyphs" textLength="238" x="1135.5" y="43.832">Bean Discovery</text><line style="stroke: #000000; stroke-width: 2.0;" x1="697" x2="697" y1="14.8281" y2="984.6743"/><rect fill="#888888" height="6" rx="2.5" ry="2.5" style="stroke: #888888; stroke-width: 1.0;" width="1095" x="707" y="418.7485"/><rect fill="#FFFFFF" height="332.6719" style="stroke: #000000; stroke-width: 2.0;" width="337" x="721" y="447.4575"/><path d="M1021,448.4575 L1021,454.4575 L1011,464.4575 L721,464.4575 " fill="#FFFFFF" style="stroke: #000000; stroke-width: 2.0;"/><text fill="#000000" font-family="Serif" font-size="14" font-weight="bold" lengthAdjust="spacingAndGlyphs" textLength="290" x="724" y="458.9575">For each discovered types during type discovery</text><polygon fill="#337788" points="731,481.4575,1048,481.4575,1058,503.1665,1048,524.8755,731,524.8755" style="stroke: #FFFFFF; stroke-width: 1.5;"/><text fill="#FFFFFF" font-family="Consolas" font-size="20" lengthAdjust="spacingAndGlyphs" textLength="297" x="741" y="509.729">ProcessInjectionPoint&lt;T, X&gt;</text><polygon fill="#337788" points="742,559.8755,1037,559.8755,1047,581.5845,1037,603.2935,742,603.2935" style="stroke: #FFFFFF; stroke-width: 1.5;"/><text fill="#FFFFFF" font-family="Consolas" font-size="20" lengthAdjust="spacingAndGlyphs" textLength="275" x="752" y="588.147">ProcessInjectionTarget&lt;X&gt;</text><polygon fill="#337788" points="747.5,638.2935,1031.5,638.2935,1041.5,660.0024,1031.5,681.7114,747.5,681.7114" style="stroke: #FFFFFF; stroke-width: 1.5;"/><text fill="#FFFFFF" font-family="Consolas" font-size="20" lengthAdjust="spacingAndGlyphs" textLength="264" x="757.5" y="666.5649">ProcessBeanAttributes&lt;T&gt;</text><polygon fill="#337788" points="764,716.7114,1015,716.7114,1025,738.4204,1015,760.1294,764,760.1294" style="stroke: #FFFFFF; stroke-width: 1.5;"/><text fill="#FFFFFF" font-family="Consolas" font-size="20" lengthAdjust="spacingAndGlyphs" textLength="231" x="774" y="744.9829">ProcessManagedBean&lt;X&gt;</text><rect fill="#FFFFFF" height="356.0898" style="stroke: #000000; stroke-width: 2.0;" width="337" x="1086" y="435.7485"/><path d="M1412,436.7485 L1412,442.7485 L1402,452.7485 L1086,452.7485 " fill="#FFFFFF" style="stroke: #000000; stroke-width: 2.0;"/><text fill="#000000" font-family="Serif" font-size="14" font-weight="bold" lengthAdjust="spacingAndGlyphs" textLength="316" x="1089" y="447.2485">For each producer methods / fields of enabled beans</text><polygon fill="#337788" points="1096,469.7485,1413,469.7485,1423,491.4575,1413,513.1665,1096,513.1665" style="stroke: #FFFFFF; stroke-width: 1.5;"/><text fill="#FFFFFF" font-family="Consolas" font-size="20" lengthAdjust="spacingAndGlyphs" textLength="297" x="1106" y="498.02">ProcessInjectionPoint&lt;T, X&gt;</text><polygon fill="#337788" points="1129,548.1665,1380,548.1665,1390,569.8755,1380,591.5845,1129,591.5845" style="stroke: #FFFFFF; stroke-width: 1.5;"/><text fill="#FFFFFF" font-family="Consolas" font-size="20" lengthAdjust="spacingAndGlyphs" textLength="231" x="1139" y="576.438">ProcessProducer&lt;T, X&gt;</text><polygon fill="#337788" points="1112.5,626.5845,1396.5,626.5845,1406.5,648.2935,1396.5,670.0024,1112.5,670.0024" style="stroke: #FFFFFF; stroke-width: 1.5;"/><text fill="#FFFFFF" font-family="Consolas" font-size="20" lengthAdjust="spacingAndGlyphs" textLength="264" x="1122.5" y="654.856">ProcessBeanAttributes&lt;T&gt;</text><polygon fill="#337788" points="1096,705.0024,1413,705.0024,1423,738.4204,1413,771.8384,1096,771.8384" style="stroke: #FFFFFF; stroke-width: 1.5;"/><text fill="#FFFFFF" font-family="Consolas" font-size="20" lengthAdjust="spacingAndGlyphs" textLength="297" x="1106" y="733.2739">ProcessProducerMethod&lt;T, X&gt;</text><text fill="#FFFFFF" font-family="Consolas" font-size="20" lengthAdjust="spacingAndGlyphs" textLength="286" x="1106" y="756.6919">ProcessProducerField&lt;T, X&gt;</text><rect fill="#FFFFFF" height="175.8359" style="stroke: #000000; stroke-width: 2.0;" width="337" x="1451" y="525.8755"/><path d="M1729,526.8755 L1729,532.8755 L1719,542.8755 L1451,542.8755 " fill="#FFFFFF" style="stroke: #000000; stroke-width: 2.0;"/><text fill="#000000" font-family="Serif" font-size="14" font-weight="bold" lengthAdjust="spacingAndGlyphs" textLength="268" x="1454" y="537.3755">For each observer methods of enabled beans</text><polygon fill="#337788" points="1461,559.8755,1778,559.8755,1788,581.5845,1778,603.2935,1461,603.2935" style="stroke: #FFFFFF; stroke-width: 1.5;"/><text fill="#FFFFFF" font-family="Consolas" font-size="20" lengthAdjust="spacingAndGlyphs" textLength="297" x="1471" y="588.147">ProcessInjectionPoint&lt;T, X&gt;</text><polygon fill="#337788" points="1461,638.2935,1778,638.2935,1788,660.0024,1778,681.7114,1461,681.7114" style="stroke: #FFFFFF; stroke-width: 1.5;"/><text fill="#FFFFFF" font-family="Consolas" font-size="20" lengthAdjust="spacingAndGlyphs" textLength="297" x="1471" y="666.5649">ProcessObserverMethod&lt;T, X&gt;</text><rect fill="#888888" height="6" rx="2.5" ry="2.5" style="stroke: #888888; stroke-width: 1.0;" width="1095" x="707" y="811.8384"/><line style="stroke: #000000; stroke-width: 2.0;" x1="1812" x2="1812" y1="14.8281" y2="984.6743"/><line style="stroke: #888888; stroke-width: 1.5;" x1="172" x2="172" y1="70.1602" y2="90.1602"/><polygon fill="#888888" points="168,80.1602,172,90.1602,176,80.1602,172,84.1602" style="stroke: #888888; stroke-width: 1.0;"/><line style="stroke: #888888; stroke-width: 1.5;" x1="172" x2="172" y1="881.2563" y2="901.2563"/><polygon fill="#888888" points="168,891.2563,172,901.2563,176,891.2563,172,895.2563" style="stroke: #888888; stroke-width: 1.0;"/><line style="stroke: #888888; stroke-width: 1.5;" x1="172" x2="172" y1="944.6743" y2="964.6743"/><polygon fill="#888888" points="168,954.6743,172,964.6743,176,954.6743,172,958.6743" style="stroke: #888888; stroke-width: 1.0;"/><line style="stroke: #888888; stroke-width: 1.5;" x1="520.5" x2="520.5" y1="223.9126" y2="243.9126"/><polygon fill="#888888" points="516.5,233.9126,520.5,243.9126,524.5,233.9126,520.5,237.9126" style="stroke: #888888; stroke-width: 1.0;"/><line style="stroke: #888888; stroke-width: 1.5;" x1="520.5" x2="520.5" y1="287.3306" y2="307.3306"/><polygon fill="#888888" points="516.5,297.3306,520.5,307.3306,524.5,297.3306,520.5,301.3306" style="stroke: #888888; stroke-width: 1.0;"/><line style="stroke: #888888; stroke-width: 1.5;" x1="520.5" x2="520.5" y1="186.3633" y2="217.9126"/><polygon fill="#888888" points="516.5,207.9126,520.5,217.9126,524.5,207.9126,520.5,211.9126" style="stroke: #888888; stroke-width: 1.0;"/><line style="stroke: #888888; stroke-width: 1.5;" x1="520.5" x2="520.5" y1="313.3306" y2="323.3306"/><line style="stroke: #888888; stroke-width: 1.5;" x1="520.5" x2="683" y1="323.3306" y2="323.3306"/><line style="stroke: #888888; stroke-width: 1.5;" x1="683" x2="683" y1="169.9707" y2="323.3306"/><line style="stroke: #888888; stroke-width: 1.5;" x1="608.5" x2="683" y1="169.9707" y2="169.9707"/><polygon fill="#888888" points="618.5,165.9707,608.5,169.9707,618.5,173.9707,614.5,169.9707" style="stroke: #888888; stroke-width: 1.0;"/><line style="stroke: #888888; stroke-width: 1.5;" x1="358" x2="432.5" y1="169.9707" y2="169.9707"/><line style="stroke: #888888; stroke-width: 1.5;" x1="358" x2="358" y1="169.9707" y2="340.3306"/><line style="stroke: #888888; stroke-width: 1.5;" x1="358" x2="358" y1="340.3306" y2="340.3306"/><line style="stroke: #888888; stroke-width: 1.5;" x1="172" x2="358" y1="340.3306" y2="340.3306"/><line style="stroke: #888888; stroke-width: 1.5;" x1="889.5" x2="889.5" y1="524.8755" y2="559.8755"/><polygon fill="#888888" points="885.5,549.8755,889.5,559.8755,893.5,549.8755,889.5,553.8755" style="stroke: #888888; stroke-width: 1.0;"/><line style="stroke: #888888; stroke-width: 1.5;" x1="889.5" x2="889.5" y1="603.2935" y2="638.2935"/><polygon fill="#888888" points="885.5,628.2935,889.5,638.2935,893.5,628.2935,889.5,632.2935" style="stroke: #888888; stroke-width: 1.0;"/><line style="stroke: #888888; stroke-width: 1.5;" x1="889.5" x2="889.5" y1="681.7114" y2="716.7114"/><polygon fill="#888888" points="885.5,706.7114,889.5,716.7114,893.5,706.7114,889.5,710.7114" style="stroke: #888888; stroke-width: 1.0;"/><line style="stroke: #888888; stroke-width: 1.5;" x1="1254.5" x2="1254.5" y1="513.1665" y2="548.1665"/><polygon fill="#888888" points="1250.5,538.1665,1254.5,548.1665,1258.5,538.1665,1254.5,542.1665" style="stroke: #888888; stroke-width: 1.0;"/><line style="stroke: #888888; stroke-width: 1.5;" x1="1254.5" x2="1254.5" y1="591.5845" y2="626.5845"/><polygon fill="#888888" points="1250.5,616.5845,1254.5,626.5845,1258.5,616.5845,1254.5,620.5845" style="stroke: #888888; stroke-width: 1.0;"/><line style="stroke: #888888; stroke-width: 1.5;" x1="1254.5" x2="1254.5" y1="670.0024" y2="705.0024"/><polygon fill="#888888" points="1250.5,695.0024,1254.5,705.0024,1258.5,695.0024,1254.5,699.0024" style="stroke: #888888; stroke-width: 1.0;"/><line style="stroke: #888888; stroke-width: 1.5;" x1="1619.5" x2="1619.5" y1="603.2935" y2="638.2935"/><polygon fill="#888888" points="1615.5,628.2935,1619.5,638.2935,1623.5,628.2935,1619.5,632.2935" style="stroke: #888888; stroke-width: 1.0;"/><line style="stroke: #888888; stroke-width: 1.5;" x1="889.5" x2="889.5" y1="424.7485" y2="481.4575"/><polygon fill="#888888" points="885.5,471.4575,889.5,481.4575,893.5,471.4575,889.5,475.4575" style="stroke: #888888; stroke-width: 1.0;"/><line style="stroke: #888888; stroke-width: 1.5;" x1="889.5" x2="889.5" y1="760.1294" y2="811.8384"/><polygon fill="#888888" points="885.5,801.8384,889.5,811.8384,893.5,801.8384,889.5,805.8384" style="stroke: #888888; stroke-width: 1.0;"/><line style="stroke: #888888; stroke-width: 1.5;" x1="1254.5" x2="1254.5" y1="424.7485" y2="469.7485"/><polygon fill="#888888" points="1250.5,459.7485,1254.5,469.7485,1258.5,459.7485,1254.5,463.7485" style="stroke: #888888; stroke-width: 1.0;"/><line style="stroke: #888888; stroke-width: 1.5;" x1="1254.5" x2="1254.5" y1="771.8384" y2="811.8384"/><polygon fill="#888888" points="1250.5,801.8384,1254.5,811.8384,1258.5,801.8384,1254.5,805.8384" style="stroke: #888888; stroke-width: 1.0;"/><line style="stroke: #888888; stroke-width: 1.5;" x1="1619.5" x2="1619.5" y1="424.7485" y2="559.8755"/><polygon fill="#888888" points="1615.5,549.8755,1619.5,559.8755,1623.5,549.8755,1619.5,553.8755" style="stroke: #888888; stroke-width: 1.0;"/><line style="stroke: #888888; stroke-width: 1.5;" x1="1619.5" x2="1619.5" y1="681.7114" y2="811.8384"/><polygon fill="#888888" points="1615.5,801.8384,1619.5,811.8384,1623.5,801.8384,1619.5,805.8384" style="stroke: #888888; stroke-width: 1.0;"/><line style="stroke: #888888; stroke-width: 1.5;" x1="172" x2="172" y1="133.5781" y2="138.5781"/><line style="stroke: #888888; stroke-width: 1.5;" x1="172" x2="520.5" y1="138.5781" y2="138.5781"/><line style="stroke: #888888; stroke-width: 1.5;" x1="520.5" x2="520.5" y1="138.5781" y2="153.5781"/><polygon fill="#888888" points="516.5,143.5781,520.5,153.5781,524.5,143.5781,520.5,147.5781" style="stroke: #888888; stroke-width: 1.0;"/><line style="stroke: #888888; stroke-width: 1.5;" x1="172" x2="172" y1="340.3306" y2="355.3306"/><polygon fill="#888888" points="168,345.3306,172,355.3306,176,345.3306,172,349.3306" style="stroke: #888888; stroke-width: 1.0;"/><line style="stroke: #888888; stroke-width: 1.5;" x1="172" x2="172" y1="398.7485" y2="403.7485"/><line style="stroke: #888888; stroke-width: 1.5;" x1="172" x2="1254.5" y1="403.7485" y2="403.7485"/><line style="stroke: #888888; stroke-width: 1.5;" x1="1254.5" x2="1254.5" y1="403.7485" y2="418.7485"/><polygon fill="#888888" points="1250.5,408.7485,1254.5,418.7485,1258.5,408.7485,1254.5,412.7485" style="stroke: #888888; stroke-width: 1.0;"/><line style="stroke: #888888; stroke-width: 1.5;" x1="1254.5" x2="1254.5" y1="817.8384" y2="822.8384"/><line style="stroke: #888888; stroke-width: 1.5;" x1="172" x2="1254.5" y1="822.8384" y2="822.8384"/><line style="stroke: #888888; stroke-width: 1.5;" x1="172" x2="172" y1="822.8384" y2="837.8384"/><polygon fill="#888888" points="168,827.8384,172,837.8384,176,827.8384,172,831.8384" style="stroke: #888888; stroke-width: 1.0;"/></g></svg>