<?xml version="1.0" encoding="UTF-8" standalone="yes"?><svg xmlns="http://www.w3.org/2000/svg" xmlns:xlink="http://www.w3.org/1999/xlink" height="487pt" style="width:673px;height:487px;" version="1.1" viewBox="0 0 673 487" width="673pt"><defs/><g><polygon fill="#FFFFFF" points="24,54,137,54,144,77.6094,222,77.6094,222,124,24,124,24,54" style="stroke: #000000; stroke-width: 2.0;"/><line style="stroke: #000000; stroke-width: 2.0;" x1="24" x2="144" y1="77.6094" y2="77.6094"/><text fill="#000000" font-family="sans-serif" font-size="14" font-weight="bold" lengthAdjust="spacingAndGlyphs" textLength="107" x="27" y="71.5332">Type Discovery</text><polygon fill="#FFFFFF" points="230,54,346,54,353,77.6094,456,77.6094,456,420,230,420,230,54" style="stroke: #000000; stroke-width: 2.0;"/><line style="stroke: #000000; stroke-width: 2.0;" x1="230" x2="353" y1="77.6094" y2="77.6094"/><text fill="#000000" font-family="sans-serif" font-size="14" font-weight="bold" lengthAdjust="spacingAndGlyphs" textLength="110" x="233" y="71.5332">Bean Discovery</text><rect fill="#CD853F" height="34.0508" rx="12.5" ry="12.5" style="stroke: #FFFFFF; stroke-width: 1.5;" width="181" x="32.5" y="82"/><text fill="#FFFFFF" font-family="Consolas" font-size="12" lengthAdjust="spacingAndGlyphs" textLength="161" x="42.5" y="103.9883">ProcessAnnotatedType&lt;T&gt;</text><rect fill="#CD853F" height="34.0508" rx="12.5" ry="12.5" style="stroke: #FFFFFF; stroke-width: 1.5;" width="209" x="238.5" y="82"/><text fill="#FFFFFF" font-family="Consolas" font-size="12" lengthAdjust="spacingAndGlyphs" textLength="189" x="248.5" y="103.9883">ProcessInjectionPoint&lt;T, X&gt;</text><rect fill="#CD853F" height="34.0508" rx="12.5" ry="12.5" style="stroke: #FFFFFF; stroke-width: 1.5;" width="195" x="245.5" y="156"/><text fill="#FFFFFF" font-family="Consolas" font-size="12" lengthAdjust="spacingAndGlyphs" textLength="175" x="255.5" y="177.9883">ProcessInjectionTarget&lt;X&gt;</text><rect fill="#CD853F" height="34.0508" rx="12.5" ry="12.5" style="stroke: #FFFFFF; stroke-width: 1.5;" width="188" x="249" y="230"/><text fill="#FFFFFF" font-family="Consolas" font-size="12" lengthAdjust="spacingAndGlyphs" textLength="168" x="259" y="251.9883">ProcessBeanAttributes&lt;T&gt;</text><rect fill="#CD853F" height="34.0508" rx="12.5" ry="12.5" style="stroke: #FFFFFF; stroke-width: 1.5;" width="118" x="284" y="304"/><text fill="#FFFFFF" font-family="Consolas" font-size="12" lengthAdjust="spacingAndGlyphs" textLength="98" x="294" y="325.9883">ProcessBean&lt;X&gt;</text><rect fill="#CD853F" height="34.0508" rx="12.5" ry="12.5" style="stroke: #FFFFFF; stroke-width: 1.5;" width="209" x="238.5" y="378"/><text fill="#FFFFFF" font-family="Consolas" font-size="12" lengthAdjust="spacingAndGlyphs" textLength="189" x="248.5" y="399.9883">ProcessObserverMethod&lt;T, X&gt;</text><ellipse cx="16" cy="25" fill="#000000" rx="10" ry="10" style="stroke: none; stroke-width: 1.0;"/><rect fill="#808000" height="34.0508" rx="12.5" ry="12.5" style="stroke: #FFFFFF; stroke-width: 1.5;" width="153" x="46.5" y="8"/><text fill="#FFFFFF" font-family="Consolas" font-size="12" lengthAdjust="spacingAndGlyphs" textLength="133" x="56.5" y="29.9883">BeforeBeanDiscovery</text><rect fill="#808000" height="34.0508" rx="12.5" ry="12.5" style="stroke: #FFFFFF; stroke-width: 1.5;" width="146" x="63" y="156"/><text fill="#FFFFFF" font-family="Consolas" font-size="12" lengthAdjust="spacingAndGlyphs" textLength="126" x="73" y="177.9883">AfterTypeDiscovery</text><rect fill="#808000" height="34.0508" rx="12.5" ry="12.5" style="stroke: #FFFFFF; stroke-width: 1.5;" width="146" x="270" y="452"/><text fill="#FFFFFF" font-family="Consolas" font-size="12" lengthAdjust="spacingAndGlyphs" textLength="126" x="280" y="473.9883">AfterBeanDiscovery</text><rect fill="#CD853F" height="34.0508" rx="12.5" ry="12.5" style="stroke: #FFFFFF; stroke-width: 1.5;" width="195" x="436.5" y="452"/><text fill="#FFFFFF" font-family="Consolas" font-size="12" lengthAdjust="spacingAndGlyphs" textLength="175" x="446.5" y="473.9883">AfterDeploymentValidation</text><ellipse cx="662" cy="469" fill="none" rx="10" ry="10" style="stroke: #000000; stroke-width: 1.0;"/><ellipse cx="662.5" cy="469.5" fill="#000000" rx="6" ry="6" style="stroke: none; stroke-width: 1.0;"/><path d="M26.0313,25 C31.1448,25 36.2584,25 41.372,25 " fill="none" style="stroke: #A80036; stroke-width: 1.0;"/><polygon fill="#A80036" points="46.4856,25,37.4856,21,41.4856,25,37.4856,29,46.4856,25" style="stroke: #A80036; stroke-width: 1.0;"/><path d="M123,42.338 C123,52.464 123,65.584 123,76.543 " fill="none" style="stroke: #A80036; stroke-width: 1.0;"/><polygon fill="#A80036" points="123,81.727,127,72.727,123,76.727,119,72.727,123,81.727" style="stroke: #A80036; stroke-width: 1.0;"/><path d="M125.95,116.338 C127.778,126.464 130.147,139.584 132.126,150.543 " fill="none" style="stroke: #A80036; stroke-width: 1.0;"/><polygon fill="#A80036" points="133.062,155.727,135.3988,146.1594,132.1734,150.8066,127.5261,147.5812,133.062,155.727" style="stroke: #A80036; stroke-width: 1.0;"/><path d="M291.916,117.768 C258.283,129.467 214.619,144.654 182.056,155.981 " fill="none" style="stroke: #A80036; stroke-width: 1.0;"/><polygon fill="#A80036" points="296.803,116.069,286.9884,115.2479,292.0806,117.7117,289.6168,122.8038,296.803,116.069" style="stroke: #A80036; stroke-width: 1.0;"/><path d="M343,116.338 C343,126.464 343,139.584 343,150.543 " fill="none" style="stroke: #A80036; stroke-width: 1.0;"/><polygon fill="#A80036" points="343,155.727,347,146.727,343,150.727,339,146.727,343,155.727" style="stroke: #A80036; stroke-width: 1.0;"/><path d="M343,190.338 C343,200.464 343,213.584 343,224.543 " fill="none" style="stroke: #A80036; stroke-width: 1.0;"/><polygon fill="#A80036" points="343,229.727,347,220.727,343,224.727,339,220.727,343,229.727" style="stroke: #A80036; stroke-width: 1.0;"/><path d="M343,264.338 C343,274.464 343,287.584 343,298.543 " fill="none" style="stroke: #A80036; stroke-width: 1.0;"/><polygon fill="#A80036" points="343,303.727,347,294.727,343,298.727,339,294.727,343,303.727" style="stroke: #A80036; stroke-width: 1.0;"/><path d="M343,338.338 C343,348.464 343,361.584 343,372.543 " fill="none" style="stroke: #A80036; stroke-width: 1.0;"/><polygon fill="#A80036" points="343,377.727,347,368.727,343,372.727,339,368.727,343,377.727" style="stroke: #A80036; stroke-width: 1.0;"/><path d="M343,412.3379 C343,422.4641 343,435.5843 343,446.5432 " fill="none" style="stroke: #A80036; stroke-width: 1.0;"/><polygon fill="#A80036" points="343,451.7267,347,442.7267,343,446.7267,339,442.7267,343,451.7267" style="stroke: #A80036; stroke-width: 1.0;"/><path d="M416.117,469 C421.182,469 426.248,469 431.313,469 " fill="none" style="stroke: #A80036; stroke-width: 1.0;"/><polygon fill="#A80036" points="436.378,469,427.378,465,431.378,469,427.378,473,436.378,469" style="stroke: #A80036; stroke-width: 1.0;"/><path d="M632,469 C636.819,469 641.639,469 646.458,469 " fill="none" style="stroke: #A80036; stroke-width: 1.0;"/><polygon fill="#A80036" points="651.688,469,642.688,465,646.688,469,642.688,473,651.688,469" style="stroke: #A80036; stroke-width: 1.0;"/></g></svg>