<?xml version="1.0" encoding="UTF-8" standalone="yes"?><svg xmlns="http://www.w3.org/2000/svg" xmlns:xlink="http://www.w3.org/1999/xlink" height="992pt" style="width:1805px;height:992px;" version="1.1" viewBox="0 0 1805 992" width="1805pt"><defs/><g><text fill="#000000" font-family="sans-serif" font-size="30" font-weight="bold" lengthAdjust="spacingAndGlyphs" textLength="287" x="29" y="46.2344">Application lifecycle</text><line style="stroke: #000000; stroke-width: 2.0;" x1="10" x2="10" y1="15.0918" y2="991.6025"/><ellipse cx="167.5" cy="62.8262" fill="#000000" rx="10" ry="10" style="stroke: none; stroke-width: 1.0;"/><polygon fill="#BB3322" points="53,92.8262,282,92.8262,292,114.5352,282,136.2441,53,136.2441" style="stroke: #FFFFFF; stroke-width: 1.5;"/><text fill="#FFFFFF" font-family="Consolas" font-size="20" lengthAdjust="spacingAndGlyphs" textLength="209" x="63" y="122.8066">BeforeBeanDiscovery</text><polygon fill="#BB3322" points="58.5,358.9365,276.5,358.9365,286.5,380.6455,276.5,402.3545,58.5,402.3545" style="stroke: #FFFFFF; stroke-width: 1.5;"/><text fill="#FFFFFF" font-family="Consolas" font-size="20" lengthAdjust="spacingAndGlyphs" textLength="198" x="68.5" y="388.917">AfterTypeDiscovery</text><polygon fill="#BB3322" points="58.5,844.7666,276.5,844.7666,286.5,866.4756,276.5,888.1846,58.5,888.1846" style="stroke: #FFFFFF; stroke-width: 1.5;"/><text fill="#FFFFFF" font-family="Consolas" font-size="20" lengthAdjust="spacingAndGlyphs" textLength="198" x="68.5" y="874.7471">AfterBeanDiscovery</text><polygon fill="#BB3322" points="20,908.1846,315,908.1846,325,929.8936,315,951.6025,20,951.6025" style="stroke: #FFFFFF; stroke-width: 1.5;"/><text fill="#FFFFFF" font-family="Consolas" font-size="20" lengthAdjust="spacingAndGlyphs" textLength="275" x="30" y="938.165">AfterDeploymentValidation</text><ellipse cx="167.5" cy="981.6025" fill="none" rx="10" ry="10" style="stroke: #000000; stroke-width: 1.0;"/><ellipse cx="168" cy="982.1025" fill="#000000" rx="6" ry="6" style="stroke: none; stroke-width: 1.0;"/><text fill="#000000" font-family="sans-serif" font-size="30" font-weight="bold" lengthAdjust="spacingAndGlyphs" textLength="221" x="401" y="46.2344">Type Discovery</text><line style="stroke: #000000; stroke-width: 2.0;" x1="335" x2="335" y1="15.0918" y2="991.6025"/><rect fill="#888888" height="6" rx="2.5" ry="2.5" style="stroke: #888888; stroke-width: 1.0;" width="301" x="361" y="221.5186"/><polygon fill="#337788" points="375,247.5186,648,247.5186,658,269.2275,648,290.9365,375,290.9365" style="stroke: #FFFFFF; stroke-width: 1.5;"/><text fill="#FFFFFF" font-family="Consolas" font-size="20" lengthAdjust="spacingAndGlyphs" textLength="253" x="385" y="277.499">ProcessAnnotatedType&lt;X&gt;</text><rect fill="#888888" height="6" rx="2.5" ry="2.5" style="stroke: #888888; stroke-width: 1.0;" width="301" x="361" y="310.9365"/><polygon fill="#337788" points="435.5,156.2441,587.5,156.2441,599.5,172.6367,587.5,189.0293,435.5,189.0293,423.5,172.6367,435.5,156.2441" style="stroke: #FFFFFF; stroke-width: 1.5;"/><text fill="#000000" font-family="Consolas" font-size="11" lengthAdjust="spacingAndGlyphs" textLength="18" x="515.5" y="200.0186">yes</text><text fill="#FFFFFF" font-family="Consolas" font-size="14" lengthAdjust="spacingAndGlyphs" textLength="112" x="435.5" y="170.2305">while types in</text><text fill="#FFFFFF" font-family="Consolas" font-size="14" lengthAdjust="spacingAndGlyphs" textLength="152" x="435.5" y="186.623">deployment archive?</text><text fill="#000000" font-family="Consolas" font-size="11" lengthAdjust="spacingAndGlyphs" textLength="12" x="411.5" y="170.7461">no</text><polygon fill="#888888" points="670,247.0313,674,237.0313,678,247.0313,674,243.0313" style="stroke: #888888; stroke-width: 1.0;"/><polygon fill="#888888" points="345,251.0313,349,261.0313,353,251.0313,349,255.0313" style="stroke: #888888; stroke-width: 1.0;"/><text fill="#000000" font-family="sans-serif" font-size="30" font-weight="bold" lengthAdjust="spacingAndGlyphs" textLength="225" x="1133.5" y="46.2344">Bean Discovery</text><line style="stroke: #000000; stroke-width: 2.0;" x1="688" x2="688" y1="15.0918" y2="991.6025"/><rect fill="#888888" height="6" rx="2.5" ry="2.5" style="stroke: #888888; stroke-width: 1.0;" width="1096" x="698" y="422.3545"/><rect fill="#FFFFFF" height="336.418" style="stroke: #000000; stroke-width: 2.0;" width="337" x="712" y="450.6396"/><path d="M1014,451.6396 L1014,461.3857 L1004,471.3857 L712,471.3857 " fill="#FFFFFF" style="stroke: #000000; stroke-width: 2.0;"/><text fill="#000000" font-family="Serif" font-size="14" font-weight="bold" lengthAdjust="spacingAndGlyphs" textLength="292" x="715" y="466.3096">For each discovered types during type discovery</text><polygon fill="#337788" points="722,488.3857,1039,488.3857,1049,510.0947,1039,531.8037,722,531.8037" style="stroke: #FFFFFF; stroke-width: 1.5;"/><text fill="#FFFFFF" font-family="Consolas" font-size="20" lengthAdjust="spacingAndGlyphs" textLength="297" x="732" y="518.3662">ProcessInjectionPoint&lt;T, X&gt;</text><polygon fill="#337788" points="733,566.8037,1028,566.8037,1038,588.5127,1028,610.2217,733,610.2217" style="stroke: #FFFFFF; stroke-width: 1.5;"/><text fill="#FFFFFF" font-family="Consolas" font-size="20" lengthAdjust="spacingAndGlyphs" textLength="275" x="743" y="596.7842">ProcessInjectionTarget&lt;X&gt;</text><polygon fill="#337788" points="738.5,645.2217,1022.5,645.2217,1032.5,666.9307,1022.5,688.6396,738.5,688.6396" style="stroke: #FFFFFF; stroke-width: 1.5;"/><text fill="#FFFFFF" font-family="Consolas" font-size="20" lengthAdjust="spacingAndGlyphs" textLength="264" x="748.5" y="675.2021">ProcessBeanAttributes&lt;T&gt;</text><polygon fill="#337788" points="755,723.6396,1006,723.6396,1016,745.3486,1006,767.0576,755,767.0576" style="stroke: #FFFFFF; stroke-width: 1.5;"/><text fill="#FFFFFF" font-family="Consolas" font-size="20" lengthAdjust="spacingAndGlyphs" textLength="231" x="765" y="753.6201">ProcessManagedBean&lt;X&gt;</text><rect fill="#FFFFFF" height="359.8359" style="stroke: #000000; stroke-width: 2.0;" width="338" x="1077" y="438.9307"/><path d="M1405,439.9307 L1405,449.6768 L1395,459.6768 L1077,459.6768 " fill="#FFFFFF" style="stroke: #000000; stroke-width: 2.0;"/><text fill="#000000" font-family="Serif" font-size="14" font-weight="bold" lengthAdjust="spacingAndGlyphs" textLength="318" x="1080" y="454.6006">For each producer methods / fields of enabled beans</text><polygon fill="#337788" points="1087.5,476.6768,1404.5,476.6768,1414.5,498.3857,1404.5,520.0947,1087.5,520.0947" style="stroke: #FFFFFF; stroke-width: 1.5;"/><text fill="#FFFFFF" font-family="Consolas" font-size="20" lengthAdjust="spacingAndGlyphs" textLength="297" x="1097.5" y="506.6572">ProcessInjectionPoint&lt;T, X&gt;</text><polygon fill="#337788" points="1120.5,555.0947,1371.5,555.0947,1381.5,576.8037,1371.5,598.5127,1120.5,598.5127" style="stroke: #FFFFFF; stroke-width: 1.5;"/><text fill="#FFFFFF" font-family="Consolas" font-size="20" lengthAdjust="spacingAndGlyphs" textLength="231" x="1130.5" y="585.0752">ProcessProducer&lt;T, X&gt;</text><polygon fill="#337788" points="1104,633.5127,1388,633.5127,1398,655.2217,1388,676.9307,1104,676.9307" style="stroke: #FFFFFF; stroke-width: 1.5;"/><text fill="#FFFFFF" font-family="Consolas" font-size="20" lengthAdjust="spacingAndGlyphs" textLength="264" x="1114" y="663.4932">ProcessBeanAttributes&lt;T&gt;</text><polygon fill="#337788" points="1087.5,711.9307,1404.5,711.9307,1414.5,745.3486,1404.5,778.7666,1087.5,778.7666" style="stroke: #FFFFFF; stroke-width: 1.5;"/><text fill="#FFFFFF" font-family="Consolas" font-size="20" lengthAdjust="spacingAndGlyphs" textLength="297" x="1097.5" y="741.9111">ProcessProducerMethod&lt;T, X&gt;</text><text fill="#FFFFFF" font-family="Consolas" font-size="20" lengthAdjust="spacingAndGlyphs" textLength="286" x="1097.5" y="765.3291">ProcessProducerField&lt;T, X&gt;</text><rect fill="#FFFFFF" height="179.582" style="stroke: #000000; stroke-width: 2.0;" width="337" x="1443" y="529.0576"/><path d="M1725,530.0576 L1725,539.8037 L1715,549.8037 L1443,549.8037 " fill="#FFFFFF" style="stroke: #000000; stroke-width: 2.0;"/><text fill="#000000" font-family="Serif" font-size="14" font-weight="bold" lengthAdjust="spacingAndGlyphs" textLength="272" x="1446" y="544.7275">For each observer methods of enabled beans</text><polygon fill="#337788" points="1453,566.8037,1770,566.8037,1780,588.5127,1770,610.2217,1453,610.2217" style="stroke: #FFFFFF; stroke-width: 1.5;"/><text fill="#FFFFFF" font-family="Consolas" font-size="20" lengthAdjust="spacingAndGlyphs" textLength="297" x="1463" y="596.7842">ProcessInjectionPoint&lt;T, X&gt;</text><polygon fill="#337788" points="1453,645.2217,1770,645.2217,1780,666.9307,1770,688.6396,1453,688.6396" style="stroke: #FFFFFF; stroke-width: 1.5;"/><text fill="#FFFFFF" font-family="Consolas" font-size="20" lengthAdjust="spacingAndGlyphs" textLength="297" x="1463" y="675.2021">ProcessObserverMethod&lt;T, X&gt;</text><rect fill="#888888" height="6" rx="2.5" ry="2.5" style="stroke: #888888; stroke-width: 1.0;" width="1096" x="698" y="818.7666"/><line style="stroke: #000000; stroke-width: 2.0;" x1="1804" x2="1804" y1="15.0918" y2="991.6025"/><line style="stroke: #888888; stroke-width: 1.5;" x1="167.5" x2="167.5" y1="72.8262" y2="92.8262"/><polygon fill="#888888" points="163.5,82.8262,167.5,92.8262,171.5,82.8262,167.5,86.8262" style="stroke: #888888; stroke-width: 1.0;"/><line style="stroke: #888888; stroke-width: 1.5;" x1="167.5" x2="167.5" y1="888.1846" y2="908.1846"/><polygon fill="#888888" points="163.5,898.1846,167.5,908.1846,171.5,898.1846,167.5,902.1846" style="stroke: #888888; stroke-width: 1.0;"/><line style="stroke: #888888; stroke-width: 1.5;" x1="167.5" x2="167.5" y1="951.6025" y2="971.6025"/><polygon fill="#888888" points="163.5,961.6025,167.5,971.6025,171.5,961.6025,167.5,965.6025" style="stroke: #888888; stroke-width: 1.0;"/><line style="stroke: #888888; stroke-width: 1.5;" x1="511.5" x2="511.5" y1="227.5186" y2="247.5186"/><polygon fill="#888888" points="507.5,237.5186,511.5,247.5186,515.5,237.5186,511.5,241.5186" style="stroke: #888888; stroke-width: 1.0;"/><line style="stroke: #888888; stroke-width: 1.5;" x1="511.5" x2="511.5" y1="290.9365" y2="310.9365"/><polygon fill="#888888" points="507.5,300.9365,511.5,310.9365,515.5,300.9365,511.5,304.9365" style="stroke: #888888; stroke-width: 1.0;"/><line style="stroke: #888888; stroke-width: 1.5;" x1="511.5" x2="511.5" y1="189.0293" y2="221.5186"/><polygon fill="#888888" points="507.5,211.5186,511.5,221.5186,515.5,211.5186,511.5,215.5186" style="stroke: #888888; stroke-width: 1.0;"/><line style="stroke: #888888; stroke-width: 1.5;" x1="511.5" x2="511.5" y1="316.9365" y2="326.9365"/><line style="stroke: #888888; stroke-width: 1.5;" x1="511.5" x2="674" y1="326.9365" y2="326.9365"/><line style="stroke: #888888; stroke-width: 1.5;" x1="674" x2="674" y1="172.6367" y2="326.9365"/><line style="stroke: #888888; stroke-width: 1.5;" x1="599.5" x2="674" y1="172.6367" y2="172.6367"/><polygon fill="#888888" points="609.5,168.6367,599.5,172.6367,609.5,176.6367,605.5,172.6367" style="stroke: #888888; stroke-width: 1.0;"/><line style="stroke: #888888; stroke-width: 1.5;" x1="349" x2="423.5" y1="172.6367" y2="172.6367"/><line style="stroke: #888888; stroke-width: 1.5;" x1="349" x2="349" y1="172.6367" y2="343.9365"/><line style="stroke: #888888; stroke-width: 1.5;" x1="349" x2="349" y1="343.9365" y2="343.9365"/><line style="stroke: #888888; stroke-width: 1.5;" x1="167.5" x2="349" y1="343.9365" y2="343.9365"/><line style="stroke: #888888; stroke-width: 1.5;" x1="880.5" x2="880.5" y1="531.8037" y2="566.8037"/><polygon fill="#888888" points="876.5,556.8037,880.5,566.8037,884.5,556.8037,880.5,560.8037" style="stroke: #888888; stroke-width: 1.0;"/><line style="stroke: #888888; stroke-width: 1.5;" x1="880.5" x2="880.5" y1="610.2217" y2="645.2217"/><polygon fill="#888888" points="876.5,635.2217,880.5,645.2217,884.5,635.2217,880.5,639.2217" style="stroke: #888888; stroke-width: 1.0;"/><line style="stroke: #888888; stroke-width: 1.5;" x1="880.5" x2="880.5" y1="688.6396" y2="723.6396"/><polygon fill="#888888" points="876.5,713.6396,880.5,723.6396,884.5,713.6396,880.5,717.6396" style="stroke: #888888; stroke-width: 1.0;"/><line style="stroke: #888888; stroke-width: 1.5;" x1="1246" x2="1246" y1="520.0947" y2="555.0947"/><polygon fill="#888888" points="1242,545.0947,1246,555.0947,1250,545.0947,1246,549.0947" style="stroke: #888888; stroke-width: 1.0;"/><line style="stroke: #888888; stroke-width: 1.5;" x1="1246" x2="1246" y1="598.5127" y2="633.5127"/><polygon fill="#888888" points="1242,623.5127,1246,633.5127,1250,623.5127,1246,627.5127" style="stroke: #888888; stroke-width: 1.0;"/><line style="stroke: #888888; stroke-width: 1.5;" x1="1246" x2="1246" y1="676.9307" y2="711.9307"/><polygon fill="#888888" points="1242,701.9307,1246,711.9307,1250,701.9307,1246,705.9307" style="stroke: #888888; stroke-width: 1.0;"/><line style="stroke: #888888; stroke-width: 1.5;" x1="1611.5" x2="1611.5" y1="610.2217" y2="645.2217"/><polygon fill="#888888" points="1607.5,635.2217,1611.5,645.2217,1615.5,635.2217,1611.5,639.2217" style="stroke: #888888; stroke-width: 1.0;"/><line style="stroke: #888888; stroke-width: 1.5;" x1="880.5" x2="880.5" y1="428.3545" y2="488.3857"/><polygon fill="#888888" points="876.5,478.3857,880.5,488.3857,884.5,478.3857,880.5,482.3857" style="stroke: #888888; stroke-width: 1.0;"/><line style="stroke: #888888; stroke-width: 1.5;" x1="880.5" x2="880.5" y1="767.0576" y2="818.7666"/><polygon fill="#888888" points="876.5,808.7666,880.5,818.7666,884.5,808.7666,880.5,812.7666" style="stroke: #888888; stroke-width: 1.0;"/><line style="stroke: #888888; stroke-width: 1.5;" x1="1246" x2="1246" y1="428.3545" y2="476.6768"/><polygon fill="#888888" points="1242,466.6768,1246,476.6768,1250,466.6768,1246,470.6768" style="stroke: #888888; stroke-width: 1.0;"/><line style="stroke: #888888; stroke-width: 1.5;" x1="1246" x2="1246" y1="778.7666" y2="818.7666"/><polygon fill="#888888" points="1242,808.7666,1246,818.7666,1250,808.7666,1246,812.7666" style="stroke: #888888; stroke-width: 1.0;"/><line style="stroke: #888888; stroke-width: 1.5;" x1="1611.5" x2="1611.5" y1="428.3545" y2="566.8037"/><polygon fill="#888888" points="1607.5,556.8037,1611.5,566.8037,1615.5,556.8037,1611.5,560.8037" style="stroke: #888888; stroke-width: 1.0;"/><line style="stroke: #888888; stroke-width: 1.5;" x1="1611.5" x2="1611.5" y1="688.6396" y2="818.7666"/><polygon fill="#888888" points="1607.5,808.7666,1611.5,818.7666,1615.5,808.7666,1611.5,812.7666" style="stroke: #888888; stroke-width: 1.0;"/><line style="stroke: #888888; stroke-width: 1.5;" x1="167.5" x2="167.5" y1="136.2441" y2="141.2441"/><line style="stroke: #888888; stroke-width: 1.5;" x1="167.5" x2="511.5" y1="141.2441" y2="141.2441"/><line style="stroke: #888888; stroke-width: 1.5;" x1="511.5" x2="511.5" y1="141.2441" y2="156.2441"/><polygon fill="#888888" points="507.5,146.2441,511.5,156.2441,515.5,146.2441,511.5,150.2441" style="stroke: #888888; stroke-width: 1.0;"/><line style="stroke: #888888; stroke-width: 1.5;" x1="167.5" x2="167.5" y1="343.9365" y2="358.9365"/><polygon fill="#888888" points="163.5,348.9365,167.5,358.9365,171.5,348.9365,167.5,352.9365" style="stroke: #888888; stroke-width: 1.0;"/><line style="stroke: #888888; stroke-width: 1.5;" x1="167.5" x2="167.5" y1="402.3545" y2="407.3545"/><line style="stroke: #888888; stroke-width: 1.5;" x1="167.5" x2="1246" y1="407.3545" y2="407.3545"/><line style="stroke: #888888; stroke-width: 1.5;" x1="1246" x2="1246" y1="407.3545" y2="422.3545"/><polygon fill="#888888" points="1242,412.3545,1246,422.3545,1250,412.3545,1246,416.3545" style="stroke: #888888; stroke-width: 1.0;"/><line style="stroke: #888888; stroke-width: 1.5;" x1="1246" x2="1246" y1="824.7666" y2="829.7666"/><line style="stroke: #888888; stroke-width: 1.5;" x1="167.5" x2="1246" y1="829.7666" y2="829.7666"/><line style="stroke: #888888; stroke-width: 1.5;" x1="167.5" x2="167.5" y1="829.7666" y2="844.7666"/><polygon fill="#888888" points="163.5,834.7666,167.5,844.7666,171.5,834.7666,167.5,838.7666" style="stroke: #888888; stroke-width: 1.0;"/></g></svg>