<?xml version="1.0" encoding="utf-8"?>
<!DOCTYPE svg PUBLIC "-//W3C//DTD SVG 1.1//EN" "http://www.w3.org/Graphics/SVG/1.1/DTD/svg11.dtd">
<svg version="1.1" id="QRCode_Layer" xmlns:ev="http://www.w3.org/2001/xml-events"
  xmlns="http://www.w3.org/2000/svg" xmlns:xlink="http://www.w3.org/1999/xlink" x="0px" y="0px" width="627px" height="627px"
  viewBox="0 0 627 627" enable-background="new 0 0 627 627" xml:space="preserve">
<path fill="#FFFFFF" d="M0,0v627h627V0H0z"/><rect x="38" y="38" fill="#000000" width="133" height="19"/>
<rect x="228" y="38" fill="#000000" width="19" height="19"/>
<rect x="266" y="38" fill="#000000" width="38" height="19"/>
<rect x="361" y="38" fill="#000000" width="76" height="19"/>
<rect x="456" y="38" fill="#000000" width="133" height="19"/>
<rect x="38" y="57" fill="#000000" width="19" height="19"/>
<rect x="152" y="57" fill="#000000" width="19" height="19"/>
<rect x="190" y="57" fill="#000000" width="19" height="19"/>
<rect x="228" y="57" fill="#000000" width="19" height="19"/>
<rect x="304" y="57" fill="#000000" width="38" height="19"/>
<rect x="380" y="57" fill="#000000" width="19" height="19"/>
<rect x="456" y="57" fill="#000000" width="19" height="19"/>
<rect x="570" y="57" fill="#000000" width="19" height="19"/>
<rect x="38" y="76" fill="#000000" width="19" height="19"/>
<rect x="76" y="76" fill="#000000" width="57" height="19"/>
<rect x="152" y="76" fill="#000000" width="19" height="19"/>
<rect x="266" y="76" fill="#000000" width="19" height="19"/>
<rect x="304" y="76" fill="#000000" width="19" height="19"/>
<rect x="380" y="76" fill="#000000" width="19" height="19"/>
<rect x="418" y="76" fill="#000000" width="19" height="19"/>
<rect x="456" y="76" fill="#000000" width="19" height="19"/>
<rect x="494" y="76" fill="#000000" width="57" height="19"/>
<rect x="570" y="76" fill="#000000" width="19" height="19"/>
<rect x="38" y="95" fill="#000000" width="19" height="19"/>
<rect x="76" y="95" fill="#000000" width="57" height="19"/>
<rect x="152" y="95" fill="#000000" width="19" height="19"/>
<rect x="190" y="95" fill="#000000" width="57" height="19"/>
<rect x="266" y="95" fill="#000000" width="114" height="19"/>
<rect x="418" y="95" fill="#000000" width="19" height="19"/>
<rect x="456" y="95" fill="#000000" width="19" height="19"/>
<rect x="494" y="95" fill="#000000" width="57" height="19"/>
<rect x="570" y="95" fill="#000000" width="19" height="19"/>
<rect x="38" y="114" fill="#000000" width="19" height="19"/>
<rect x="76" y="114" fill="#000000" width="57" height="19"/>
<rect x="152" y="114" fill="#000000" width="19" height="19"/>
<rect x="209" y="114" fill="#000000" width="19" height="19"/>
<rect x="342" y="114" fill="#000000" width="19" height="19"/>
<rect x="399" y="114" fill="#000000" width="38" height="19"/>
<rect x="456" y="114" fill="#000000" width="19" height="19"/>
<rect x="494" y="114" fill="#000000" width="57" height="19"/>
<rect x="570" y="114" fill="#000000" width="19" height="19"/>
<rect x="38" y="133" fill="#000000" width="19" height="19"/>
<rect x="152" y="133" fill="#000000" width="19" height="19"/>
<rect x="190" y="133" fill="#000000" width="38" height="19"/>
<rect x="247" y="133" fill="#000000" width="57" height="19"/>
<rect x="323" y="133" fill="#000000" width="38" height="19"/>
<rect x="418" y="133" fill="#000000" width="19" height="19"/>
<rect x="456" y="133" fill="#000000" width="19" height="19"/>
<rect x="570" y="133" fill="#000000" width="19" height="19"/>
<rect x="38" y="152" fill="#000000" width="133" height="19"/>
<rect x="190" y="152" fill="#000000" width="19" height="19"/>
<rect x="228" y="152" fill="#000000" width="19" height="19"/>
<rect x="266" y="152" fill="#000000" width="19" height="19"/>
<rect x="304" y="152" fill="#000000" width="19" height="19"/>
<rect x="342" y="152" fill="#000000" width="19" height="19"/>
<rect x="380" y="152" fill="#000000" width="19" height="19"/>
<rect x="418" y="152" fill="#000000" width="19" height="19"/>
<rect x="456" y="152" fill="#000000" width="133" height="19"/>
<rect x="209" y="171" fill="#000000" width="57" height="19"/>
<rect x="304" y="171" fill="#000000" width="57" height="19"/>
<rect x="38" y="190" fill="#000000" width="95" height="19"/>
<rect x="152" y="190" fill="#000000" width="76" height="19"/>
<rect x="247" y="190" fill="#000000" width="19" height="19"/>
<rect x="285" y="190" fill="#000000" width="57" height="19"/>
<rect x="361" y="190" fill="#000000" width="19" height="19"/>
<rect x="399" y="190" fill="#000000" width="19" height="19"/>
<rect x="437" y="190" fill="#000000" width="19" height="19"/>
<rect x="475" y="190" fill="#000000" width="19" height="19"/>
<rect x="513" y="190" fill="#000000" width="19" height="19"/>
<rect x="551" y="190" fill="#000000" width="19" height="19"/>
<rect x="57" y="209" fill="#000000" width="38" height="19"/>
<rect x="114" y="209" fill="#000000" width="38" height="19"/>
<rect x="190" y="209" fill="#000000" width="19" height="19"/>
<rect x="228" y="209" fill="#000000" width="19" height="19"/>
<rect x="266" y="209" fill="#000000" width="19" height="19"/>
<rect x="342" y="209" fill="#000000" width="19" height="19"/>
<rect x="380" y="209" fill="#000000" width="133" height="19"/>
<rect x="570" y="209" fill="#000000" width="19" height="19"/>
<rect x="57" y="228" fill="#000000" width="19" height="19"/>
<rect x="114" y="228" fill="#000000" width="57" height="19"/>
<rect x="228" y="228" fill="#000000" width="19" height="19"/>
<rect x="304" y="228" fill="#000000" width="38" height="19"/>
<rect x="361" y="228" fill="#000000" width="38" height="19"/>
<rect x="418" y="228" fill="#000000" width="38" height="19"/>
<rect x="95" y="247" fill="#000000" width="57" height="19"/>
<rect x="171" y="247" fill="#000000" width="19" height="19"/>
<rect x="266" y="247" fill="#000000" width="19" height="19"/>
<rect x="323" y="247" fill="#000000" width="19" height="19"/>
<rect x="380" y="247" fill="#000000" width="57" height="19"/>
<rect x="475" y="247" fill="#000000" width="38" height="19"/>
<rect x="551" y="247" fill="#000000" width="19" height="19"/>
<rect x="38" y="266" fill="#000000" width="19" height="19"/>
<rect x="76" y="266" fill="#000000" width="19" height="19"/>
<rect x="114" y="266" fill="#000000" width="57" height="19"/>
<rect x="190" y="266" fill="#000000" width="57" height="19"/>
<rect x="266" y="266" fill="#000000" width="57" height="19"/>
<rect x="361" y="266" fill="#000000" width="38" height="19"/>
<rect x="513" y="266" fill="#000000" width="38" height="19"/>
<rect x="38" y="285" fill="#000000" width="76" height="19"/>
<rect x="171" y="285" fill="#000000" width="57" height="19"/>
<rect x="285" y="285" fill="#000000" width="19" height="19"/>
<rect x="342" y="285" fill="#000000" width="171" height="19"/>
<rect x="532" y="285" fill="#000000" width="19" height="19"/>
<rect x="570" y="285" fill="#000000" width="19" height="19"/>
<rect x="76" y="304" fill="#000000" width="19" height="19"/>
<rect x="114" y="304" fill="#000000" width="19" height="19"/>
<rect x="152" y="304" fill="#000000" width="38" height="19"/>
<rect x="228" y="304" fill="#000000" width="57" height="19"/>
<rect x="323" y="304" fill="#000000" width="19" height="19"/>
<rect x="361" y="304" fill="#000000" width="19" height="19"/>
<rect x="456" y="304" fill="#000000" width="57" height="19"/>
<rect x="532" y="304" fill="#000000" width="19" height="19"/>
<rect x="38" y="323" fill="#000000" width="19" height="19"/>
<rect x="76" y="323" fill="#000000" width="19" height="19"/>
<rect x="114" y="323" fill="#000000" width="38" height="19"/>
<rect x="247" y="323" fill="#000000" width="19" height="19"/>
<rect x="304" y="323" fill="#000000" width="57" height="19"/>
<rect x="380" y="323" fill="#000000" width="133" height="19"/>
<rect x="551" y="323" fill="#000000" width="19" height="19"/>
<rect x="38" y="342" fill="#000000" width="19" height="19"/>
<rect x="95" y="342" fill="#000000" width="19" height="19"/>
<rect x="133" y="342" fill="#000000" width="57" height="19"/>
<rect x="209" y="342" fill="#000000" width="19" height="19"/>
<rect x="247" y="342" fill="#000000" width="19" height="19"/>
<rect x="323" y="342" fill="#000000" width="57" height="19"/>
<rect x="399" y="342" fill="#000000" width="19" height="19"/>
<rect x="532" y="342" fill="#000000" width="19" height="19"/>
<rect x="38" y="361" fill="#000000" width="38" height="19"/>
<rect x="171" y="361" fill="#000000" width="19" height="19"/>
<rect x="209" y="361" fill="#000000" width="38" height="19"/>
<rect x="266" y="361" fill="#000000" width="38" height="19"/>
<rect x="342" y="361" fill="#000000" width="76" height="19"/>
<rect x="456" y="361" fill="#000000" width="95" height="19"/>
<rect x="570" y="361" fill="#000000" width="19" height="19"/>
<rect x="38" y="380" fill="#000000" width="19" height="19"/>
<rect x="95" y="380" fill="#000000" width="19" height="19"/>
<rect x="133" y="380" fill="#000000" width="57" height="19"/>
<rect x="228" y="380" fill="#000000" width="19" height="19"/>
<rect x="285" y="380" fill="#000000" width="57" height="19"/>
<rect x="380" y="380" fill="#000000" width="19" height="19"/>
<rect x="418" y="380" fill="#000000" width="19" height="19"/>
<rect x="494" y="380" fill="#000000" width="57" height="19"/>
<rect x="38" y="399" fill="#000000" width="19" height="19"/>
<rect x="114" y="399" fill="#000000" width="19" height="19"/>
<rect x="209" y="399" fill="#000000" width="19" height="19"/>
<rect x="266" y="399" fill="#000000" width="38" height="19"/>
<rect x="475" y="399" fill="#000000" width="38" height="19"/>
<rect x="551" y="399" fill="#000000" width="19" height="19"/>
<rect x="38" y="418" fill="#000000" width="19" height="19"/>
<rect x="76" y="418" fill="#000000" width="38" height="19"/>
<rect x="152" y="418" fill="#000000" width="19" height="19"/>
<rect x="209" y="418" fill="#000000" width="38" height="19"/>
<rect x="266" y="418" fill="#000000" width="19" height="19"/>
<rect x="304" y="418" fill="#000000" width="76" height="19"/>
<rect x="399" y="418" fill="#000000" width="114" height="19"/>
<rect x="532" y="418" fill="#000000" width="57" height="19"/>
<rect x="190" y="437" fill="#000000" width="19" height="19"/>
<rect x="228" y="437" fill="#000000" width="19" height="19"/>
<rect x="342" y="437" fill="#000000" width="57" height="19"/>
<rect x="418" y="437" fill="#000000" width="19" height="19"/>
<rect x="494" y="437" fill="#000000" width="95" height="19"/>
<rect x="38" y="456" fill="#000000" width="133" height="19"/>
<rect x="190" y="456" fill="#000000" width="19" height="19"/>
<rect x="247" y="456" fill="#000000" width="38" height="19"/>
<rect x="323" y="456" fill="#000000" width="57" height="19"/>
<rect x="399" y="456" fill="#000000" width="38" height="19"/>
<rect x="456" y="456" fill="#000000" width="19" height="19"/>
<rect x="494" y="456" fill="#000000" width="57" height="19"/>
<rect x="38" y="475" fill="#000000" width="19" height="19"/>
<rect x="152" y="475" fill="#000000" width="19" height="19"/>
<rect x="209" y="475" fill="#000000" width="57" height="19"/>
<rect x="304" y="475" fill="#000000" width="57" height="19"/>
<rect x="399" y="475" fill="#000000" width="38" height="19"/>
<rect x="494" y="475" fill="#000000" width="38" height="19"/>
<rect x="551" y="475" fill="#000000" width="19" height="19"/>
<rect x="38" y="494" fill="#000000" width="19" height="19"/>
<rect x="76" y="494" fill="#000000" width="57" height="19"/>
<rect x="152" y="494" fill="#000000" width="19" height="19"/>
<rect x="190" y="494" fill="#000000" width="19" height="19"/>
<rect x="228" y="494" fill="#000000" width="38" height="19"/>
<rect x="323" y="494" fill="#000000" width="76" height="19"/>
<rect x="418" y="494" fill="#000000" width="95" height="19"/>
<rect x="532" y="494" fill="#000000" width="57" height="19"/>
<rect x="38" y="513" fill="#000000" width="19" height="19"/>
<rect x="76" y="513" fill="#000000" width="57" height="19"/>
<rect x="152" y="513" fill="#000000" width="19" height="19"/>
<rect x="190" y="513" fill="#000000" width="57" height="19"/>
<rect x="266" y="513" fill="#000000" width="57" height="19"/>
<rect x="342" y="513" fill="#000000" width="57" height="19"/>
<rect x="475" y="513" fill="#000000" width="19" height="19"/>
<rect x="551" y="513" fill="#000000" width="38" height="19"/>
<rect x="38" y="532" fill="#000000" width="19" height="19"/>
<rect x="76" y="532" fill="#000000" width="57" height="19"/>
<rect x="152" y="532" fill="#000000" width="19" height="19"/>
<rect x="190" y="532" fill="#000000" width="57" height="19"/>
<rect x="285" y="532" fill="#000000" width="57" height="19"/>
<rect x="361" y="532" fill="#000000" width="19" height="19"/>
<rect x="399" y="532" fill="#000000" width="19" height="19"/>
<rect x="456" y="532" fill="#000000" width="76" height="19"/>
<rect x="551" y="532" fill="#000000" width="19" height="19"/>
<rect x="38" y="551" fill="#000000" width="19" height="19"/>
<rect x="152" y="551" fill="#000000" width="19" height="19"/>
<rect x="190" y="551" fill="#000000" width="19" height="19"/>
<rect x="266" y="551" fill="#000000" width="38" height="19"/>
<rect x="342" y="551" fill="#000000" width="19" height="19"/>
<rect x="399" y="551" fill="#000000" width="38" height="19"/>
<rect x="475" y="551" fill="#000000" width="19" height="19"/>
<rect x="513" y="551" fill="#000000" width="19" height="19"/>
<rect x="551" y="551" fill="#000000" width="19" height="19"/>
<rect x="38" y="570" fill="#000000" width="133" height="19"/>
<rect x="190" y="570" fill="#000000" width="19" height="19"/>
<rect x="266" y="570" fill="#000000" width="19" height="19"/>
<rect x="304" y="570" fill="#000000" width="38" height="19"/>
<rect x="361" y="570" fill="#000000" width="19" height="19"/>
<rect x="399" y="570" fill="#000000" width="19" height="19"/>
<rect x="437" y="570" fill="#000000" width="19" height="19"/>
<rect x="494" y="570" fill="#000000" width="57" height="19"/>
</svg>
